<svg xmlns="http://www.w3.org/2000/svg" xmlns:v="https://svgstorm.com"
viewBox = "0 0 628 461"
width="628"
height="461">
<g fill="None" fill-opacity="0.0" stroke="#2B2B2B" stroke-opacity="1.00" stroke-width="0.3"><path d="
M 0.00 461.00 
L 628.00 461.00
L 628.00 287.00
C 613.33 287.00 598.67 287.00 584.00 287.00
C 592.90 283.86 577.56 285.33 574.00 285.00
C 575.78 282.97 579.48 284.47 582.00 284.00
C 582.30 281.08 581.07 278.57 580.00 276.00
C 577.72 282.07 569.89 276.92 565.00 279.00
C 567.85 277.66 565.45 276.56 564.00 275.00
C 561.08 277.59 557.06 274.46 552.30 271.70 C 547.53 268.94 534.16 274.99 537.00 265.00
C 535.71 268.59 528.40 267.18 532.00 263.00
C 526.39 262.16 522.23 263.04 517.00 262.00
C 523.51 256.92 511.17 259.75 507.00 259.00
C 509.16 250.68 499.84 258.14 501.00 251.00
C 496.72 251.05 497.34 257.95 497.00 250.00
C 495.64 252.64 495.22 257.17 495.00 251.00
C 491.39 252.38 489.46 248.97 487.00 250.00
C 488.68 245.00 483.25 243.46 484.00 239.00
C 480.67 239.00 477.33 239.00 474.00 239.00
C 474.86 233.46 465.23 236.75 468.00 230.00
C 465.84 229.99 460.17 232.25 464.00 229.00
C 461.50 228.51 459.34 226.02 460.00 223.00
C 457.14 223.35 454.61 222.73 452.00 222.00
C 453.66 215.93 446.76 214.13 442.00 215.00
C 443.01 211.12 438.79 210.54 436.00 211.00
C 436.27 206.87 432.97 206.34 436.00 203.00
C 433.09 202.25 431.10 202.90 428.00 203.00
C 428.02 197.32 424.48 193.32 418.00 195.00
C 418.00 192.00 418.00 189.00 418.00 186.00
C 415.12 189.49 410.34 187.96 412.00 183.00
C 407.25 183.69 408.50 181.60 410.00 179.00
C 404.84 182.25 404.88 175.09 402.00 176.00
C 404.15 171.97 402.78 170.56 401.00 166.00
C 395.91 169.48 392.40 163.84 394.00 159.00
C 389.78 159.33 390.53 157.36 392.00 155.00
C 386.82 155.48 385.48 149.91 388.00 147.00
C 382.70 148.34 385.02 143.85 384.00 141.00
C 381.91 144.67 381.83 140.25 382.00 138.00
C 376.68 142.02 379.53 134.12 374.90 134.10 C 370.27 134.07 372.30 132.10 368.00 132.00
C 366.56 127.68 371.82 130.19 373.00 128.00
C 372.72 128.18 363.67 128.15 367.14 127.07 C 370.62 126.00 368.54 126.93 366.00 125.00
C 373.11 127.29 373.07 118.82 366.00 120.00
C 368.86 118.19 367.36 113.23 365.00 117.00
C 364.62 112.75 360.71 111.41 364.00 108.00
C 360.89 107.91 362.76 102.09 358.00 104.00
C 359.13 101.57 364.98 100.14 358.00 100.00
C 358.97 96.60 359.67 89.58 354.00 92.00
C 355.24 89.72 356.76 87.39 356.00 84.00
C 349.65 83.53 351.01 73.54 350.00 68.00
C 345.12 68.51 348.83 60.89 344.00 60.00
C 346.47 57.04 345.62 55.28 341.00 56.00
C 343.95 52.28 343.86 49.78 342.74 45.26 C 341.63 40.73 342.09 31.62 338.00 31.00
C 338.97 29.48 339.11 19.86 337.67 16.33 C 336.24 12.80 339.58 8.54 334.00 8.00
C 335.13 5.57 340.98 4.14 334.00 4.00
C 333.15 0.59 338.81 3.52 338.00 0.00
L 0.00 0.00
L 0.00 461.00
M 259.00 226.00 
C 244.72 227.30 234.33 217.90 237.00 203.00
C 237.93 197.81 242.88 193.32 247.23 191.23 C 251.57 189.14 251.62 175.74 249.00 172.00
C 247.67 170.66 246.20 170.65 245.00 169.00
C 244.64 168.77 244.00 169.00 244.00 169.00
C 240.04 167.06 238.11 161.82 237.00 158.00
C 232.00 140.82 254.20 129.40 267.23 138.77 C 280.26 148.14 275.96 167.58 262.00 174.00
C 262.36 181.06 260.40 189.91 267.70 193.30 C 274.99 196.69 275.21 207.82 274.00 214.00 C 272.79 220.18 264.88 226.06 259.00 226.00
M 344.00 161.00 
C 340.00 158.08 327.02 159.32 324.00 162.00
C 316.82 170.82 306.33 177.12 296.25 168.75 C 286.18 160.38 288.23 146.80 297.75 139.75 C 307.27 132.70 323.31 139.28 325.00 151.00
C 331.00 151.00 337.00 151.00 343.00 151.00
C 347.53 132.21 375.87 133.01 378.00 153.00 C 380.13 173.00 350.49 181.08 344.00 161.00
M 369.00 223.00 
C 363.12 225.69 357.40 224.39 352.00 229.00
C 342.56 237.07 334.41 247.00 325.00 255.00
C 330.66 270.27 311.49 283.72 298.31 275.69 C 285.13 267.66 288.53 246.37 303.00 243.00
C 303.00 236.33 303.00 229.67 303.00 223.00
C 282.24 219.08 288.66 187.49 309.00 189.00 C 329.34 190.51 331.18 219.40 312.00 224.00
C 312.00 230.33 312.00 236.67 312.00 243.00
C 315.56 243.70 317.73 246.68 321.00 248.00
C 329.51 238.67 338.71 229.45 348.00 221.00
C 335.49 207.27 345.63 187.41 364.00 189.00 C 382.37 190.59 386.00 216.81 369.00 223.00
M 259.00 278.00 
C 252.45 280.89 242.36 277.97 239.00 270.00
C 232.48 254.54 246.69 236.06 263.25 244.75 C 279.80 253.45 272.50 272.04 259.00 278.00
M 367.00 243.00 
C 387.97 248.68 376.17 285.63 354.93 277.07 C 333.69 268.51 343.72 236.69 367.00 243.00
M 165.00 314.00 
C 165.35 314.70 165.67 315.32 166.00 316.00
C 167.61 319.28 164.73 323.41 166.00 328.00 C 167.27 332.59 157.98 334.09 158.03 328.97 C 158.07 323.85 159.27 319.95 153.00 320.00 C 146.73 320.05 150.48 326.63 148.00 330.00
C 147.78 330.30 147.29 330.78 147.00 331.00
C 140.20 336.29 138.58 314.12 140.97 310.97 C 143.37 307.83 138.02 296.87 146.00 299.00 C 153.99 301.13 144.98 307.68 149.78 311.22 C 154.58 314.76 160.45 309.81 158.00 304.00 C 155.55 298.19 165.89 297.08 165.97 302.03 C 166.05 306.98 166.09 312.23 165.74 314.19
M 183.00 330.00 
C 182.78 330.30 182.29 330.78 182.00 331.00
C 175.48 336.07 175.69 322.21 175.22 318.78 C 174.75 315.34 174.92 305.63 177.00 302.00
C 177.61 300.93 177.97 300.59 179.00 300.00
C 183.04 297.68 189.19 299.66 194.00 299.00
C 196.89 303.00 202.79 311.13 196.70 315.70 C 190.61 320.27 204.57 328.69 196.92 331.92 C 189.26 335.14 190.47 318.71 184.00 320.00
C 183.39 323.17 185.25 327.65 183.00 330.00
M 256.00 311.00 
C 256.29 307.64 257.23 296.26 263.00 299.00 C 268.78 301.75 266.06 309.26 266.93 314.07 C 267.80 318.89 262.37 326.21 265.00 332.00
C 255.58 335.50 255.08 322.63 250.00 318.00
C 244.67 321.69 254.74 329.69 246.92 331.92 C 239.09 334.14 243.12 325.82 241.00 321.00 C 238.88 316.18 241.63 312.53 241.00 307.00 C 240.37 301.46 243.66 296.31 248.74 300.26 C 253.82 304.20 252.09 306.55 256.00 311.00
M 331.00 305.00 
C 331.55 307.17 330.96 309.49 330.00 311.00
C 328.97 312.62 326.80 311.14 326.00 313.00
C 344.37 322.50 316.79 343.09 309.00 326.00
C 308.80 325.60 309.00 325.00 309.00 325.00
C 308.64 323.42 309.27 321.60 309.00 320.00
C 310.78 320.25 314.36 318.97 314.00 322.00
C 316.65 323.63 321.63 327.75 324.25 323.25 C 326.86 318.74 317.90 318.89 316.00 318.00
C 314.10 317.11 313.32 315.31 312.00 314.00
C 311.03 313.24 310.62 313.08 310.00 312.00
C 302.59 299.08 328.00 293.18 331.00 305.00
M 376.00 315.00 
C 376.19 315.09 376.00 316.00 376.00 316.00
C 376.94 317.44 378.46 331.39 372.92 331.92 C 367.37 332.45 367.41 321.36 367.07 316.93 C 366.73 312.49 370.35 302.86 360.00 306.00
C 357.69 294.26 375.13 300.06 381.67 299.33 C 388.21 298.60 385.03 308.44 380.00 306.00 C 374.96 303.56 376.45 313.88 376.00 315.00
M 446.00 311.00 
C 445.74 311.25 445.00 311.00 445.00 311.00
C 443.05 311.25 442.32 310.83 441.00 310.00
C 438.77 308.61 433.64 302.36 430.75 307.75 C 427.87 313.15 438.06 311.57 440.00 313.00
C 440.32 313.24 441.00 313.00 441.00 313.00
C 451.72 316.87 447.53 330.32 438.00 332.00 C 428.47 333.68 415.03 324.02 427.00 318.00
C 421.00 312.46 421.97 301.90 430.08 299.08 C 438.20 296.27 449.65 302.72 446.00 311.00
M 126.00 301.00 
C 128.35 301.87 130.86 303.48 132.00 306.00
C 134.83 312.27 128.10 314.95 126.25 310.75 C 124.40 306.55 117.83 302.70 116.08 308.08 C 114.34 313.47 115.15 318.35 117.26 323.74 C 119.37 329.14 126.78 320.19 128.00 320.00
C 129.30 319.80 130.69 320.15 132.00 320.00
C 132.98 328.82 126.07 331.88 118.00 331.00 C 109.93 330.12 110.69 320.99 108.00 316.00
C 107.66 314.42 108.61 307.89 110.00 306.00
C 110.22 305.70 110.68 305.20 111.00 305.00
C 115.15 299.68 119.93 298.76 126.00 301.00
M 225.00 301.00 
C 230.08 303.38 231.76 312.33 232.00 317.00
C 234.74 329.35 224.01 333.74 213.75 332.20 C 203.50 330.65 202.73 311.10 208.00 306.00
C 208.26 305.75 209.00 306.00 209.00 306.00
C 210.28 304.16 211.95 301.96 214.00 301.00
C 217.15 299.52 221.90 299.55 225.00 301.00
M 293.00 330.00 
C 276.47 336.10 267.61 311.47 279.00 303.00
C 297.47 289.26 308.69 324.21 293.00 330.00
M 396.00 326.00 
C 394.36 328.42 390.48 334.74 390.00 329.00
C 389.60 324.24 395.27 319.89 392.00 315.00
C 396.35 311.04 402.56 294.53 407.30 305.70 C 412.05 316.86 411.70 320.56 416.00 331.00
C 410.50 332.47 410.36 326.36 409.00 323.00
C 404.97 324.06 396.95 320.36 396.00 326.00
M 461.00 301.00 
C 461.64 305.17 459.71 310.66 462.00 314.00
C 466.10 309.45 468.60 300.72 476.00 301.00
C 474.83 305.82 470.28 309.59 467.00 313.00
C 469.01 319.75 476.12 324.19 478.00 331.00
C 470.87 331.33 468.38 322.53 465.00 318.00
C 457.66 318.93 463.89 324.40 461.00 329.00 C 458.11 333.60 454.99 327.51 456.00 323.00 C 457.01 318.49 453.40 316.01 455.97 311.97 C 458.55 307.94 452.11 298.77 461.00 301.00
M 504.00 310.00 
C 502.83 309.46 494.25 301.56 493.25 308.25 C 492.25 314.94 501.41 309.76 504.74 313.26 C 508.07 316.75 511.45 319.76 509.00 325.00
C 506.22 330.94 498.74 332.28 493.00 331.00 C 487.26 329.72 483.50 317.92 492.00 320.00
C 488.89 327.35 504.85 328.64 503.97 321.97 C 503.10 315.30 493.00 320.07 489.75 314.25 C 486.50 308.42 488.19 302.47 495.03 301.03 C 501.86 299.59 509.75 303.10 508.00 311.00
C 506.72 310.72 504.50 311.76 504.00 310.00 Z"/>
</g>
<g fill="None" fill-opacity="0.0" stroke="#3E3E3E" stroke-opacity="1.00" stroke-width="0.3"><path d="
M 628.00 287.00 
L 628.00 0.00
L 338.00 0.00
C 338.81 3.52 333.15 0.59 334.00 4.00
C 340.98 4.14 335.13 5.57 334.00 8.00
C 339.58 8.54 336.24 12.80 337.67 16.33 C 339.11 19.86 338.97 29.48 338.00 31.00
C 342.09 31.62 341.63 40.73 342.74 45.26 C 343.86 49.78 343.95 52.28 341.00 56.00
C 345.62 55.28 346.47 57.04 344.00 60.00
C 348.83 60.89 345.12 68.51 350.00 68.00
C 351.01 73.54 349.65 83.53 356.00 84.00
C 356.76 87.39 355.24 89.72 354.00 92.00
C 359.67 89.58 358.97 96.60 358.00 100.00
C 364.98 100.14 359.13 101.57 358.00 104.00
C 362.76 102.09 360.89 107.91 364.00 108.00
C 360.71 111.41 364.62 112.75 365.00 117.00
C 367.36 113.23 368.86 118.19 366.00 120.00
C 373.07 118.82 373.11 127.29 366.00 125.00
C 368.54 126.93 370.62 126.00 367.14 127.07 C 363.67 128.15 372.72 128.18 373.00 128.00
C 371.82 130.19 366.56 127.68 368.00 132.00
C 372.30 132.10 370.27 134.07 374.90 134.10 C 379.53 134.12 376.68 142.02 382.00 138.00
C 381.83 140.25 381.91 144.67 384.00 141.00
C 385.02 143.85 382.70 148.34 388.00 147.00
C 385.48 149.91 386.82 155.48 392.00 155.00
C 390.53 157.36 389.78 159.33 394.00 159.00
C 392.40 163.84 395.91 169.48 401.00 166.00
C 402.78 170.56 404.15 171.97 402.00 176.00
C 404.88 175.09 404.84 182.25 410.00 179.00
C 408.50 181.60 407.25 183.69 412.00 183.00
C 410.34 187.96 415.12 189.49 418.00 186.00
C 418.00 189.00 418.00 192.00 418.00 195.00
C 424.48 193.32 428.02 197.32 428.00 203.00
C 431.10 202.90 433.09 202.25 436.00 203.00
C 432.97 206.34 436.27 206.87 436.00 211.00
C 438.79 210.54 443.01 211.12 442.00 215.00
C 446.76 214.13 453.66 215.93 452.00 222.00
C 454.61 222.73 457.14 223.35 460.00 223.00
C 459.34 226.02 461.50 228.51 464.00 229.00
C 460.17 232.25 465.84 229.99 468.00 230.00
C 465.23 236.75 474.86 233.46 474.00 239.00
C 477.33 239.00 480.67 239.00 484.00 239.00
C 483.25 243.46 488.68 245.00 487.00 250.00
C 489.46 248.97 491.39 252.38 495.00 251.00
C 495.22 257.17 495.64 252.64 497.00 250.00
C 497.34 257.95 496.72 251.05 501.00 251.00
C 499.84 258.14 509.16 250.68 507.00 259.00
C 511.17 259.75 523.51 256.92 517.00 262.00
C 522.23 263.04 526.39 262.16 532.00 263.00
C 528.40 267.18 535.71 268.59 537.00 265.00
C 534.16 274.99 547.53 268.94 552.30 271.70 C 557.06 274.46 561.08 277.59 564.00 275.00
C 565.45 276.56 567.85 277.66 565.00 279.00
C 569.89 276.92 577.72 282.07 580.00 276.00
C 581.07 278.57 582.30 281.08 582.00 284.00
C 579.48 284.47 575.78 282.97 574.00 285.00
C 577.56 285.33 592.90 283.86 584.00 287.00
C 598.67 287.00 613.33 287.00 628.00 287.00 Z"/>
</g>
<g fill="None" fill-opacity="0.0" stroke="#3D3C50" stroke-opacity="1.00" stroke-width="0.3"><path d="
M 237.00 158.00 
C 236.06 152.09 237.63 148.10 241.00 144.00
C 248.29 135.12 261.95 134.76 268.92 144.08 C 275.89 153.40 271.57 168.75 260.00 172.00
C 260.02 179.86 257.92 190.14 265.08 193.92 C 272.24 197.70 273.07 205.53 272.02 212.02 C 270.98 218.52 265.01 224.28 259.00 226.00
C 264.88 226.06 272.79 220.18 274.00 214.00 C 275.21 207.82 274.99 196.69 267.70 193.30 C 260.40 189.91 262.36 181.06 262.00 174.00
C 275.96 167.58 280.26 148.14 267.23 138.77 C 254.20 129.40 232.00 140.82 237.00 158.00 Z"/>
</g>
<g fill="None" fill-opacity="0.0" stroke="#A19FE5" stroke-opacity="1.00" stroke-width="0.3"><path d="
M 241.00 144.00 
C 235.97 151.56 237.34 162.75 244.00 169.00
C 244.00 169.00 244.64 168.77 245.00 169.00
C 249.23 171.67 253.22 171.64 252.00 178.00 C 250.78 184.36 254.24 188.44 249.00 192.00
C 244.99 194.72 238.36 197.75 237.00 203.00
C 234.33 217.90 244.72 227.30 259.00 226.00
C 265.01 224.28 270.98 218.52 272.02 212.02 C 273.07 205.53 272.24 197.70 265.08 193.92 C 257.92 190.14 260.02 179.86 260.00 172.00
C 271.57 168.75 275.89 153.40 268.92 144.08 C 261.95 134.76 248.29 135.12 241.00 144.00
M 258.00 146.00 
C 268.85 148.91 263.40 167.52 252.33 163.67 C 241.26 159.82 246.68 142.96 258.00 146.00
M 258.00 199.00 
C 268.67 201.87 263.34 220.73 252.00 217.00 C 240.66 213.27 246.66 195.96 258.00 199.00 Z"/>
</g>
<g fill="None" fill-opacity="0.0" stroke="#A2A1E4" stroke-opacity="1.00" stroke-width="0.3"><path d="
M 324.00 162.00 
C 327.12 158.17 339.76 156.68 344.00 161.00
C 350.49 181.08 380.13 173.00 378.00 153.00 C 375.87 133.01 347.53 132.21 343.00 151.00
C 337.00 151.00 331.00 151.00 325.00 151.00
C 323.31 139.28 307.27 132.70 297.75 139.75 C 288.23 146.80 286.18 160.38 296.25 168.75 C 306.33 177.12 316.82 170.82 324.00 162.00
M 312.00 146.00 
C 321.42 149.14 315.46 167.52 304.93 163.07 C 294.39 158.62 299.49 141.83 312.00 146.00
M 364.00 146.00 
C 374.62 149.03 367.52 168.57 356.98 163.02 C 346.43 157.48 352.64 142.76 364.00 146.00 Z"/>
</g>
<g fill="None" fill-opacity="0.0" stroke="#7777A0" stroke-opacity="1.00" stroke-width="0.3"><path d="
M 237.00 158.00 
C 238.11 161.82 240.04 167.06 244.00 169.00
C 237.34 162.75 235.97 151.56 241.00 144.00
C 237.63 148.10 236.06 152.09 237.00 158.00 Z"/>
</g>
<g fill="None" fill-opacity="0.0" stroke="#34343C" stroke-opacity="1.00" stroke-width="0.3"><path d="
M 258.00 146.00 
C 246.68 142.96 241.26 159.82 252.33 163.67 C 263.40 167.52 268.85 148.91 258.00 146.00 Z"/>
</g>
<g fill="None" fill-opacity="0.0" stroke="#35353E" stroke-opacity="1.00" stroke-width="0.3"><path d="
M 312.00 146.00 
C 299.49 141.83 294.39 158.62 304.93 163.07 C 315.46 167.52 321.42 149.14 312.00 146.00 Z"/>
</g>
<g fill="None" fill-opacity="0.0" stroke="#393942" stroke-opacity="1.00" stroke-width="0.3"><path d="
M 364.00 146.00 
C 352.64 142.76 346.43 157.48 356.98 163.02 C 367.52 168.57 374.62 149.03 364.00 146.00 Z"/>
</g>
<g fill="None" fill-opacity="0.0" stroke="#636286" stroke-opacity="1.00" stroke-width="0.3"><path d="
M 324.00 162.00 
C 327.02 159.32 340.00 158.08 344.00 161.00
C 339.76 156.68 327.12 158.17 324.00 162.00 Z"/>
</g>
<g fill="None" fill-opacity="0.0" stroke="#7978A4" stroke-opacity="1.00" stroke-width="0.3"><path d="
M 249.00 172.00 
C 251.97 174.98 252.77 188.45 249.00 192.00
C 254.24 188.44 250.78 184.36 252.00 178.00 C 253.22 171.64 249.23 171.67 245.00 169.00
C 246.20 170.65 247.67 170.66 249.00 172.00 Z"/>
</g>
<g fill="None" fill-opacity="0.0" stroke="#3B3B56" stroke-opacity="1.00" stroke-width="0.3"><path d="
M 237.00 203.00 
C 238.36 197.75 244.99 194.72 249.00 192.00
C 252.77 188.45 251.97 174.98 249.00 172.00
C 251.62 175.74 251.57 189.14 247.23 191.23 C 242.88 193.32 237.93 197.81 237.00 203.00 Z"/>
</g>
<g fill="None" fill-opacity="0.0" stroke="#A19FE3" stroke-opacity="1.00" stroke-width="0.3"><path d="
M 352.00 229.00 
C 357.83 223.17 361.51 225.27 369.00 223.00
C 386.00 216.81 382.37 190.59 364.00 189.00 C 345.63 187.41 335.49 207.27 348.00 221.00
C 338.71 229.45 329.51 238.67 321.00 248.00
C 317.73 246.68 315.56 243.70 312.00 243.00
C 312.00 236.67 312.00 230.33 312.00 224.00
C 331.18 219.40 329.34 190.51 309.00 189.00 C 288.66 187.49 282.24 219.08 303.00 223.00
C 303.00 229.67 303.00 236.33 303.00 243.00
C 288.53 246.37 285.13 267.66 298.31 275.69 C 311.49 283.72 330.66 270.27 325.00 255.00
C 334.41 247.00 342.56 237.07 352.00 229.00
M 312.00 198.00 
C 321.68 201.41 315.39 219.99 304.78 215.22 C 294.16 210.45 300.68 194.02 312.00 198.00
M 363.00 198.00 
C 374.33 200.87 367.87 219.54 357.00 215.00 C 346.13 210.46 352.65 195.38 363.00 198.00
M 310.00 251.00 
C 321.04 253.17 317.61 271.25 306.00 269.00 C 294.39 266.75 298.37 248.72 310.00 251.00 Z"/>
</g>
<g fill="None" fill-opacity="0.0" stroke="#35343D" stroke-opacity="1.00" stroke-width="0.3"><path d="
M 312.00 198.00 
C 300.68 194.02 294.16 210.45 304.78 215.22 C 315.39 219.99 321.68 201.41 312.00 198.00 Z"/>
</g>
<g fill="None" fill-opacity="0.0" stroke="#37373E" stroke-opacity="1.00" stroke-width="0.3"><path d="
M 363.00 198.00 
C 352.65 195.38 346.13 210.46 357.00 215.00 C 367.87 219.54 374.33 200.87 363.00 198.00 Z"/>
</g>
<g fill="None" fill-opacity="0.0" stroke="#35353E" stroke-opacity="1.00" stroke-width="0.3"><path d="
M 258.00 199.00 
C 246.66 195.96 240.66 213.27 252.00 217.00 C 263.34 220.73 268.67 201.87 258.00 199.00 Z"/>
</g>
<g fill="None" fill-opacity="0.0" stroke="#5E5D81" stroke-opacity="1.00" stroke-width="0.3"><path d="
M 352.00 229.00 
C 357.40 224.39 363.12 225.69 369.00 223.00
C 361.51 225.27 357.83 223.17 352.00 229.00 Z"/>
</g>
<g fill="None" fill-opacity="0.0" stroke="#9D9DE2" stroke-opacity="1.00" stroke-width="0.3"><path d="
M 239.00 270.00 
C 242.55 275.79 252.64 279.01 259.00 278.00
C 272.50 272.04 279.80 253.45 263.25 244.75 C 246.69 236.06 232.48 254.54 239.00 270.00
M 257.00 251.00 
C 268.16 253.02 264.37 271.80 253.00 269.00 C 241.62 266.19 245.69 248.96 257.00 251.00 Z"/>
</g>
<g fill="None" fill-opacity="0.0" stroke="#A19FE4" stroke-opacity="1.00" stroke-width="0.3"><path d="
M 367.00 243.00 
C 343.72 236.69 333.69 268.51 354.93 277.07 C 376.17 285.63 387.97 248.68 367.00 243.00
M 363.00 251.00 
C 374.42 254.07 368.45 273.12 357.33 268.67 C 346.21 264.22 352.17 248.09 363.00 251.00 Z"/>
</g>
<g fill="None" fill-opacity="0.0" stroke="#303038" stroke-opacity="1.00" stroke-width="0.3"><path d="
M 257.00 251.00 
C 245.69 248.96 241.62 266.19 253.00 269.00 C 264.37 271.80 268.16 253.02 257.00 251.00 Z"/>
</g>
<g fill="None" fill-opacity="0.0" stroke="#33333C" stroke-opacity="1.00" stroke-width="0.3"><path d="
M 310.00 251.00 
C 298.37 248.72 294.39 266.75 306.00 269.00 C 317.61 271.25 321.04 253.17 310.00 251.00 Z"/>
</g>
<g fill="None" fill-opacity="0.0" stroke="#36363F" stroke-opacity="1.00" stroke-width="0.3"><path d="
M 363.00 251.00 
C 352.17 248.09 346.21 264.22 357.33 268.67 C 368.45 273.12 374.42 254.07 363.00 251.00 Z"/>
</g>
<g fill="None" fill-opacity="0.0" stroke="#35354C" stroke-opacity="1.00" stroke-width="0.3"><path d="
M 259.00 278.00 
C 252.64 279.01 242.55 275.79 239.00 270.00
C 242.36 277.97 252.45 280.89 259.00 278.00 Z"/>
</g>
<g fill="None" fill-opacity="0.0" stroke="#2C2B40" stroke-opacity="1.00" stroke-width="0.3"><path d="
M 147.00 331.00 
C 145.56 331.44 143.80 331.13 143.00 330.00
C 141.20 327.46 144.47 321.83 143.00 319.00 C 141.53 316.17 141.55 314.88 142.97 311.97 C 144.40 309.07 141.27 303.63 143.00 301.00
C 146.97 294.98 150.11 310.53 148.00 313.00
C 152.00 313.00 156.00 313.00 160.00 313.00
C 161.88 310.32 158.59 304.01 160.00 301.00
C 167.66 299.79 161.70 310.29 165.00 314.00
C 166.09 312.23 166.05 306.98 165.97 302.03 C 165.89 297.08 155.55 298.19 158.00 304.00 C 160.45 309.81 154.58 314.76 149.78 311.22 C 144.98 307.68 153.99 301.13 146.00 299.00 C 138.02 296.87 143.37 307.83 140.97 310.97 C 138.58 314.12 140.20 336.29 147.00 331.00 Z"/>
</g>
<g fill="None" fill-opacity="0.0" stroke="#2B2B3D" stroke-opacity="1.00" stroke-width="0.3"><path d="
M 179.00 300.00 
C 183.15 298.66 192.83 298.99 195.00 303.00
C 195.25 303.47 195.69 304.66 196.00 305.00
C 201.52 311.06 193.74 313.83 194.00 320.00
C 194.69 321.93 195.23 324.07 196.00 326.00
C 196.56 327.40 198.93 328.82 198.00 331.00
C 193.07 332.16 190.85 326.70 190.00 323.00
C 189.28 321.33 188.00 319.91 188.00 318.00
C 186.33 318.00 184.67 318.00 183.00 318.00
C 182.58 321.94 183.56 326.08 183.00 330.00
C 185.25 327.65 183.39 323.17 184.00 320.00
C 190.47 318.71 189.26 335.14 196.92 331.92 C 204.57 328.69 190.61 320.27 196.70 315.70 C 202.79 311.13 196.89 303.00 194.00 299.00
C 189.19 299.66 183.04 297.68 179.00 300.00 Z"/>
</g>
<g fill="None" fill-opacity="0.0" stroke="#333245" stroke-opacity="1.00" stroke-width="0.3"><path d="
M 256.00 311.00 
C 252.09 306.55 253.82 304.20 248.74 300.26 C 243.66 296.31 240.37 301.46 241.00 307.00 C 241.63 312.53 238.88 316.18 241.00 321.00 C 243.12 325.82 239.09 334.14 246.92 331.92 C 254.74 329.69 244.67 321.69 250.00 318.00
C 255.08 322.63 255.58 335.50 265.00 332.00
C 262.37 326.21 267.80 318.89 266.93 314.07 C 266.06 309.26 268.78 301.75 263.00 299.00 C 257.23 296.26 256.29 307.64 256.00 311.00
M 250.00 304.00 
C 252.71 309.30 254.89 315.59 259.00 320.00
C 259.00 313.67 259.00 307.33 259.00 301.00
C 266.88 298.99 263.12 309.94 264.78 314.22 C 266.44 318.50 262.13 325.27 264.00 331.00
C 254.56 329.69 253.80 316.38 248.00 310.00
C 245.71 316.09 247.63 324.16 247.00 331.00
C 246.00 331.00 245.00 331.00 244.00 331.00
C 239.80 330.15 242.90 321.69 241.22 317.78 C 239.54 313.87 243.14 290.58 250.00 304.00 Z"/>
</g>
<g fill="None" fill-opacity="0.0" stroke="#2E2E40" stroke-opacity="1.00" stroke-width="0.3"><path d="
M 310.00 312.00 
C 308.60 307.75 310.71 304.19 314.00 302.00
C 317.56 299.63 320.95 299.50 325.00 301.00
C 326.29 301.48 330.51 303.49 331.00 305.00
C 328.00 293.18 302.59 299.08 310.00 312.00 Z"/>
</g>
<g fill="None" fill-opacity="0.0" stroke="#403F56" stroke-opacity="1.00" stroke-width="0.3"><path d="
M 376.00 316.00 
C 372.33 319.59 374.66 325.40 374.00 330.00
C 366.28 331.53 372.19 321.65 370.00 318.00 C 367.81 314.35 371.06 310.05 370.00 305.00
C 367.00 305.00 364.00 305.00 361.00 305.00
C 362.02 296.67 376.39 302.95 383.00 301.00
C 384.61 306.92 377.40 304.55 374.00 305.00
C 374.67 308.20 372.29 313.31 376.00 315.00
C 376.45 313.88 374.96 303.56 380.00 306.00 C 385.03 308.44 388.21 298.60 381.67 299.33 C 375.13 300.06 357.69 294.26 360.00 306.00
C 370.35 302.86 366.73 312.49 367.07 316.93 C 367.41 321.36 367.37 332.45 372.92 331.92 C 378.46 331.39 376.94 317.44 376.00 316.00 Z"/>
</g>
<g fill="None" fill-opacity="0.0" stroke="#363544" stroke-opacity="1.00" stroke-width="0.3"><path d="
M 441.00 313.00 
C 444.00 317.29 448.60 321.35 444.74 326.74 C 440.89 332.13 435.13 331.89 430.00 330.00
C 424.86 328.10 419.93 319.17 429.00 320.00
C 427.31 324.99 436.87 330.14 440.25 324.25 C 443.62 318.35 433.14 317.17 429.00 317.00
C 407.44 307.26 450.70 287.14 446.00 311.00
C 449.65 302.72 438.20 296.27 430.08 299.08 C 421.97 301.90 421.00 312.46 427.00 318.00
C 415.03 324.02 428.47 333.68 438.00 332.00 C 447.53 330.32 451.72 316.87 441.00 313.00 Z"/>
</g>
<g fill="None" fill-opacity="0.0" stroke="#4E4D73" stroke-opacity="1.00" stroke-width="0.3"><path d="
M 111.00 305.00 
C 115.98 301.93 119.36 299.53 126.00 301.00
C 119.93 298.76 115.15 299.68 111.00 305.00 Z"/>
</g>
<g fill="None" fill-opacity="0.0" stroke="#58577E" stroke-opacity="1.00" stroke-width="0.3"><path d="
M 143.00 301.00 
C 144.33 301.00 145.67 301.00 147.00 301.00
C 143.72 311.04 150.83 317.90 160.00 313.00
C 156.00 313.00 152.00 313.00 148.00 313.00
C 150.11 310.53 146.97 294.98 143.00 301.00 Z"/>
</g>
<g fill="None" fill-opacity="0.0" stroke="#4C4B6D" stroke-opacity="1.00" stroke-width="0.3"><path d="
M 177.00 302.00 
C 175.54 306.50 176.12 314.08 176.26 317.75 C 176.40 321.41 175.28 332.65 182.00 331.00
C 182.29 330.78 182.78 330.30 183.00 330.00
C 183.56 326.08 182.58 321.94 183.00 318.00
C 180.05 319.91 183.14 327.05 182.00 330.00
C 175.50 331.15 178.58 320.61 177.22 316.78 C 175.86 312.95 179.75 306.26 178.00 301.00
C 183.63 301.77 190.41 299.14 195.00 303.00
C 192.83 298.99 183.15 298.66 179.00 300.00
C 177.97 300.59 177.61 300.93 177.00 302.00 Z"/>
</g>
<g fill="None" fill-opacity="0.0" stroke="#4B4A6E" stroke-opacity="1.00" stroke-width="0.3"><path d="
M 214.00 301.00 
C 216.25 300.33 222.75 300.33 225.00 301.00
C 221.90 299.55 217.15 299.52 214.00 301.00 Z"/>
</g>
<g fill="None" fill-opacity="0.0" stroke="#4F4E6F" stroke-opacity="1.00" stroke-width="0.3"><path d="
M 244.00 331.00 
C 242.06 330.04 242.45 319.19 241.25 316.75 C 240.04 314.32 245.77 304.81 243.00 301.00
C 246.53 299.95 247.80 302.17 250.00 304.00
C 243.14 290.58 239.54 313.87 241.22 317.78 C 242.90 321.69 239.80 330.15 244.00 331.00 Z"/>
</g>
<g fill="None" fill-opacity="0.0" stroke="#504E73" stroke-opacity="1.00" stroke-width="0.3"><path d="
M 314.00 302.00 
C 316.83 300.69 321.81 300.29 325.00 301.00
C 320.95 299.50 317.56 299.63 314.00 302.00 Z"/>
</g>
<g fill="None" fill-opacity="0.0" stroke="#585777" stroke-opacity="1.00" stroke-width="0.3"><path d="
M 429.00 317.00 
C 412.45 308.07 445.83 288.29 445.00 311.00
C 445.00 311.00 445.74 311.25 446.00 311.00
C 450.70 287.14 407.44 307.26 429.00 317.00 Z"/>
</g>
<g fill="None" fill-opacity="0.0" stroke="#9796D3" stroke-opacity="1.00" stroke-width="0.3"><path d="
M 111.00 305.00 
C 110.68 305.20 110.22 305.70 110.00 306.00
C 109.62 308.67 107.97 314.01 108.00 316.00
C 110.69 320.99 109.93 330.12 118.00 331.00 C 126.07 331.88 132.98 328.82 132.00 320.00
C 130.69 320.15 129.30 319.80 128.00 320.00
C 131.42 326.48 115.05 328.86 114.25 323.75 C 113.46 318.63 111.27 308.97 117.25 305.25 C 123.23 301.53 128.43 311.50 132.00 312.00
C 132.00 310.00 132.00 308.00 132.00 306.00
C 130.86 303.48 128.35 301.87 126.00 301.00
C 119.36 299.53 115.98 301.93 111.00 305.00 Z"/>
</g>
<g fill="None" fill-opacity="0.0" stroke="#9E9DDD" stroke-opacity="1.00" stroke-width="0.3"><path d="
M 143.00 330.00 
C 144.33 330.00 145.67 330.00 147.00 330.00
C 147.63 326.17 145.72 321.01 148.00 318.00
C 150.68 316.12 156.99 319.41 160.00 318.00
C 160.00 322.00 160.00 326.00 160.00 330.00
C 161.33 330.00 162.67 330.00 164.00 330.00
C 164.63 326.17 162.72 321.01 165.00 318.00
C 165.32 317.41 166.00 316.71 166.00 316.00
C 165.67 315.32 165.35 314.70 165.00 314.00
C 161.70 310.29 167.66 299.79 160.00 301.00
C 158.59 304.01 161.88 310.32 160.00 313.00
C 150.83 317.90 143.72 311.04 147.00 301.00
C 145.67 301.00 144.33 301.00 143.00 301.00
C 141.27 303.63 144.40 309.07 142.97 311.97 C 141.55 314.88 141.53 316.17 143.00 319.00 C 144.47 321.83 141.20 327.46 143.00 330.00 Z"/>
</g>
<g fill="None" fill-opacity="0.0" stroke="#9C9BDB" stroke-opacity="1.00" stroke-width="0.3"><path d="
M 183.00 318.00 
C 184.67 318.00 186.33 318.00 188.00 318.00
C 188.00 319.91 189.28 321.33 190.00 323.00
C 191.51 325.59 193.17 330.47 197.00 330.00
C 197.37 328.46 195.57 327.60 196.00 326.00
C 195.23 324.07 194.69 321.93 194.00 320.00
C 192.29 315.16 199.40 311.79 196.00 305.00
C 195.69 304.66 195.25 303.47 195.00 303.00
C 190.41 299.14 183.63 301.77 178.00 301.00
C 179.75 306.26 175.86 312.95 177.22 316.78 C 178.58 320.61 175.50 331.15 182.00 330.00
C 183.14 327.05 180.05 319.91 183.00 318.00
M 182.00 305.00 
C 186.38 303.36 196.57 306.87 191.24 312.25 C 185.92 317.62 179.28 311.67 182.00 305.00 Z"/>
</g>
<g fill="None" fill-opacity="0.0" stroke="#9998D5" stroke-opacity="1.00" stroke-width="0.3"><path d="
M 209.00 306.00 
C 209.62 312.79 204.67 325.41 213.00 330.00
C 215.82 331.30 221.85 331.94 225.00 331.00
C 230.55 328.95 228.70 321.13 231.00 318.00
C 231.22 317.70 232.01 317.15 232.00 317.00
C 231.76 312.33 230.08 303.38 225.00 301.00
C 222.75 300.33 216.25 300.33 214.00 301.00
C 211.95 301.96 210.28 304.16 209.00 306.00
M 224.00 306.00 
C 227.48 308.49 227.94 324.20 223.00 326.00
C 206.53 332.00 210.28 296.20 224.00 306.00 Z"/>
</g>
<g fill="None" fill-opacity="0.0" stroke="#9695D1" stroke-opacity="1.00" stroke-width="0.3"><path d="
M 244.00 331.00 
C 245.00 331.00 246.00 331.00 247.00 331.00
C 247.63 324.16 245.71 316.09 248.00 310.00
C 253.80 316.38 254.56 329.69 264.00 331.00
C 262.13 325.27 266.44 318.50 264.78 314.22 C 263.12 309.94 266.88 298.99 259.00 301.00
C 259.00 307.33 259.00 313.67 259.00 320.00
C 254.89 315.59 252.71 309.30 250.00 304.00
C 247.80 302.17 246.53 299.95 243.00 301.00
C 245.77 304.81 240.04 314.32 241.25 316.75 C 242.45 319.19 242.06 330.04 244.00 331.00 Z"/>
</g>
<g fill="None" fill-opacity="0.0" stroke="#9A9AD6" stroke-opacity="1.00" stroke-width="0.3"><path d="
M 279.00 303.00 
C 268.99 313.01 277.36 333.47 293.00 330.00
C 308.69 324.21 297.47 289.26 279.00 303.00
M 292.00 305.00 
C 296.32 307.23 293.05 316.33 294.00 320.00 C 294.95 323.67 288.60 330.81 283.33 325.67 C 278.06 320.53 279.20 298.38 292.00 305.00 Z"/>
</g>
<g fill="None" fill-opacity="0.0" stroke="#9A9AD5" stroke-opacity="1.00" stroke-width="0.3"><path d="
M 314.00 302.00 
C 310.71 304.19 308.60 307.75 310.00 312.00
C 310.62 313.08 311.03 313.24 312.00 314.00
C 315.80 316.97 319.32 316.10 323.00 318.00
C 325.68 319.39 328.42 322.95 323.75 325.75 C 319.08 328.55 316.24 324.00 314.00 322.00
C 314.36 318.97 310.78 320.25 309.00 320.00
C 309.27 321.60 308.64 323.42 309.00 325.00
C 315.14 327.57 322.31 334.90 329.00 327.00
C 331.98 322.52 331.13 318.32 327.25 314.75 C 323.37 311.19 315.36 315.24 315.03 308.97 C 314.69 302.71 325.67 303.84 326.00 309.00
C 326.03 309.50 326.00 310.00 326.00 310.00
C 326.55 310.84 329.13 311.39 330.00 311.00
C 330.96 309.49 331.55 307.17 331.00 305.00
C 330.51 303.49 326.29 301.48 325.00 301.00
C 321.81 300.29 316.83 300.69 314.00 302.00 Z"/>
</g>
<g fill="None" fill-opacity="0.0" stroke="#A1A0DD" stroke-opacity="1.00" stroke-width="0.3"><path d="
M 376.00 316.00 
C 376.00 316.00 376.19 315.09 376.00 315.00
C 372.29 313.31 374.67 308.20 374.00 305.00
C 377.40 304.55 384.61 306.92 383.00 301.00
C 376.39 302.95 362.02 296.67 361.00 305.00
C 364.00 305.00 367.00 305.00 370.00 305.00
C 371.06 310.05 367.81 314.35 370.00 318.00 C 372.19 321.65 366.28 331.53 374.00 330.00
C 374.66 325.40 372.33 319.59 376.00 316.00 Z"/>
</g>
<g fill="None" fill-opacity="0.0" stroke="#9A99D3" stroke-opacity="1.00" stroke-width="0.3"><path d="
M 390.00 329.00 
C 391.75 332.28 395.02 327.04 396.00 326.00
C 396.95 320.36 404.97 324.06 409.00 323.00
C 410.36 326.36 410.50 332.47 416.00 331.00
C 411.70 320.56 412.05 316.86 407.30 305.70 C 402.56 294.53 396.35 311.04 392.00 315.00
C 395.27 319.89 389.60 324.24 390.00 329.00
M 403.00 308.00 
C 404.03 311.86 406.46 315.10 407.00 319.00
C 404.00 319.00 401.00 319.00 398.00 319.00
C 399.73 315.49 399.80 310.46 403.00 308.00 Z"/>
</g>
<g fill="None" fill-opacity="0.0" stroke="#9D9CD6" stroke-opacity="1.00" stroke-width="0.3"><path d="
M 429.00 317.00 
C 433.14 317.17 443.62 318.35 440.25 324.25 C 436.87 330.14 427.31 324.99 429.00 320.00
C 419.93 319.17 424.86 328.10 430.00 330.00
C 435.50 331.22 440.34 331.06 444.25 326.25 C 448.16 321.44 441.58 316.78 440.00 313.00
C 437.13 311.94 431.44 315.25 429.75 311.25 C 428.07 307.24 429.34 306.34 434.01 305.01 C 438.68 303.68 439.04 308.19 441.00 310.00
C 442.32 310.83 443.05 311.25 445.00 311.00
C 445.83 288.29 412.45 308.07 429.00 317.00 Z"/>
</g>
<g fill="None" fill-opacity="0.0" stroke="#9998D0" stroke-opacity="1.00" stroke-width="0.3"><path d="
M 461.00 301.00 
C 452.11 298.77 458.55 307.94 455.97 311.97 C 453.40 316.01 457.01 318.49 456.00 323.00 C 454.99 327.51 458.11 333.60 461.00 329.00 C 463.89 324.40 457.66 318.93 465.00 318.00
C 468.38 322.53 470.87 331.33 478.00 331.00
C 476.12 324.19 469.01 319.75 467.00 313.00
C 470.28 309.59 474.83 305.82 476.00 301.00
C 468.60 300.72 466.10 309.45 462.00 314.00
C 459.71 310.66 461.64 305.17 461.00 301.00 Z"/>
</g>
<g fill="None" fill-opacity="0.0" stroke="#9B9AD1" stroke-opacity="1.00" stroke-width="0.3"><path d="
M 509.00 325.00 
C 510.67 319.07 505.66 312.75 500.00 313.00 C 494.34 313.26 493.69 314.17 492.08 309.92 C 490.48 305.66 494.49 306.39 498.00 305.00 C 501.52 303.61 502.82 309.11 504.00 310.00
C 504.50 311.76 506.72 310.72 508.00 311.00
C 509.75 303.10 501.86 299.59 495.03 301.03 C 488.19 302.47 486.50 308.42 489.75 314.25 C 493.00 320.07 503.10 315.30 503.97 321.97 C 504.85 328.64 488.89 327.35 492.00 320.00
C 483.50 317.92 487.26 329.72 493.00 331.00 C 498.74 332.28 506.22 330.94 509.00 325.00 Z"/>
</g>
<g fill="None" fill-opacity="0.0" stroke="#262636" stroke-opacity="1.00" stroke-width="0.3"><path d="
M 182.00 331.00 
C 175.28 332.65 176.40 321.41 176.26 317.75 C 176.12 314.08 175.54 306.50 177.00 302.00
C 174.92 305.63 174.75 315.34 175.22 318.78 C 175.69 322.21 175.48 336.07 182.00 331.00 Z"/>
</g>
<g fill="None" fill-opacity="0.0" stroke="#5F5F83" stroke-opacity="1.00" stroke-width="0.3"><path d="
M 293.00 330.00 
C 277.36 333.47 268.99 313.01 279.00 303.00
C 267.61 311.47 276.47 336.10 293.00 330.00 Z"/>
</g>
<g fill="None" fill-opacity="0.0" stroke="#343351" stroke-opacity="1.00" stroke-width="0.3"><path d="
M 128.00 320.00 
C 126.78 320.19 119.37 329.14 117.26 323.74 C 115.15 318.35 114.34 313.47 116.08 308.08 C 117.83 302.70 124.40 306.55 126.25 310.75 C 128.10 314.95 134.83 312.27 132.00 306.00
C 132.00 308.00 132.00 310.00 132.00 312.00
C 128.43 311.50 123.23 301.53 117.25 305.25 C 111.27 308.97 113.46 318.63 114.25 323.75 C 115.05 328.86 131.42 326.48 128.00 320.00 Z"/>
</g>
<g fill="None" fill-opacity="0.0" stroke="#333347" stroke-opacity="1.00" stroke-width="0.3"><path d="
M 182.00 305.00 
C 179.28 311.67 185.92 317.62 191.24 312.25 C 196.57 306.87 186.38 303.36 182.00 305.00 Z"/>
</g>
<g fill="None" fill-opacity="0.0" stroke="#4A4A6B" stroke-opacity="1.00" stroke-width="0.3"><path d="
M 194.00 320.00 
C 193.74 313.83 201.52 311.06 196.00 305.00
C 199.40 311.79 192.29 315.16 194.00 320.00 Z"/>
</g>
<g fill="None" fill-opacity="0.0" stroke="#2B2B33" stroke-opacity="1.00" stroke-width="0.3"><path d="
M 223.00 326.00 
C 226.31 324.29 226.35 308.35 224.00 306.00
C 210.28 296.20 206.53 332.00 223.00 326.00 Z"/>
</g>
<g fill="None" fill-opacity="0.0" stroke="#383755" stroke-opacity="1.00" stroke-width="0.3"><path d="
M 292.00 305.00 
C 279.20 298.38 278.06 320.53 283.33 325.67 C 288.60 330.81 294.95 323.67 294.00 320.00 C 293.05 316.33 296.32 307.23 292.00 305.00
M 291.00 306.00 
C 298.14 309.58 292.19 330.09 284.33 324.67 C 276.47 319.25 282.35 301.66 291.00 306.00 Z"/>
</g>
<g fill="None" fill-opacity="0.0" stroke="#302F48" stroke-opacity="1.00" stroke-width="0.3"><path d="
M 329.00 327.00 
C 323.49 335.28 314.93 330.14 309.00 326.00
C 316.79 343.09 344.37 322.50 326.00 313.00
C 326.80 311.14 328.97 312.62 330.00 311.00
C 329.13 311.39 326.55 310.84 326.00 310.00
C 325.08 313.09 315.55 313.64 316.03 308.97 C 316.50 304.31 324.59 305.17 326.00 309.00
C 325.67 303.84 314.69 302.71 315.03 308.97 C 315.36 315.24 323.37 311.19 327.25 314.75 C 331.13 318.32 331.98 322.52 329.00 327.00 Z"/>
</g>
<g fill="None" fill-opacity="0.0" stroke="#41405F" stroke-opacity="1.00" stroke-width="0.3"><path d="
M 440.00 313.00 
C 438.06 311.57 427.87 313.15 430.75 307.75 C 433.64 302.36 438.77 308.61 441.00 310.00
C 439.04 308.19 438.68 303.68 434.01 305.01 C 429.34 306.34 428.07 307.24 429.75 311.25 C 431.44 315.25 437.13 311.94 440.00 313.00 Z"/>
</g>
<g fill="None" fill-opacity="0.0" stroke="#3C3C57" stroke-opacity="1.00" stroke-width="0.3"><path d="
M 509.00 325.00 
C 511.45 319.76 508.07 316.75 504.74 313.26 C 501.41 309.76 492.25 314.94 493.25 308.25 C 494.25 301.56 502.83 309.46 504.00 310.00
C 502.82 309.11 501.52 303.61 498.00 305.00 C 494.49 306.39 490.48 305.66 492.08 309.92 C 493.69 314.17 494.34 313.26 500.00 313.00 C 505.66 312.75 510.67 319.07 509.00 325.00 Z"/>
</g>
<g fill="None" fill-opacity="0.0" stroke="#282844" stroke-opacity="1.00" stroke-width="0.3"><path d="
M 108.00 316.00 
C 107.97 314.01 109.62 308.67 110.00 306.00
C 108.61 307.89 107.66 314.42 108.00 316.00 Z"/>
</g>
<g fill="None" fill-opacity="0.0" stroke="#2C2B3C" stroke-opacity="1.00" stroke-width="0.3"><path d="
M 232.00 317.00 
C 232.01 317.15 231.22 317.70 231.00 318.00
C 230.31 322.76 231.22 329.14 225.00 331.00
C 221.85 331.94 215.82 331.30 213.00 330.00
C 204.35 326.00 207.36 313.09 208.00 306.00
C 202.73 311.10 203.50 330.65 213.75 332.20 C 224.01 333.74 234.74 329.35 232.00 317.00 Z"/>
</g>
<g fill="None" fill-opacity="0.0" stroke="#6E6C97" stroke-opacity="1.00" stroke-width="0.3"><path d="
M 213.00 330.00 
C 204.67 325.41 209.62 312.79 209.00 306.00
C 209.00 306.00 208.26 305.75 208.00 306.00
C 207.36 313.09 204.35 326.00 213.00 330.00 Z"/>
</g>
<g fill="None" fill-opacity="0.0" stroke="#59587B" stroke-opacity="1.00" stroke-width="0.3"><path d="
M 223.00 326.00 
C 227.94 324.20 227.48 308.49 224.00 306.00
C 226.35 308.35 226.31 324.29 223.00 326.00 Z"/>
</g>
<g fill="None" fill-opacity="0.0" stroke="#2C2C2F" stroke-opacity="1.00" stroke-width="0.3"><path d="
M 291.00 306.00 
C 282.35 301.66 276.47 319.25 284.33 324.67 C 292.19 330.09 298.14 309.58 291.00 306.00 Z"/>
</g>
<g fill="None" fill-opacity="0.0" stroke="#2E2D33" stroke-opacity="1.00" stroke-width="0.3"><path d="
M 326.00 310.00 
C 326.00 310.00 326.03 309.50 326.00 309.00
C 324.59 305.17 316.50 304.31 316.03 308.97 C 315.55 313.64 325.08 313.09 326.00 310.00 Z"/>
</g>
<g fill="None" fill-opacity="0.0" stroke="#42415D" stroke-opacity="1.00" stroke-width="0.3"><path d="
M 403.00 308.00 
C 399.80 310.46 399.73 315.49 398.00 319.00
C 401.00 319.00 404.00 319.00 407.00 319.00
C 406.46 315.10 404.03 311.86 403.00 308.00
M 401.00 317.00 
C 400.81 309.82 407.38 317.31 401.00 317.00 Z"/>
</g>
<g fill="None" fill-opacity="0.0" stroke="#313134" stroke-opacity="1.00" stroke-width="0.3"><path d="
M 401.00 317.00 
C 407.38 317.31 400.81 309.82 401.00 317.00 Z"/>
</g>
<g fill="None" fill-opacity="0.0" stroke="#6C6B90" stroke-opacity="1.00" stroke-width="0.3"><path d="
M 430.00 330.00 
C 435.13 331.89 440.89 332.13 444.74 326.74 C 448.60 321.35 444.00 317.29 441.00 313.00
C 441.00 313.00 440.32 313.24 440.00 313.00
C 441.58 316.78 448.16 321.44 444.25 326.25 C 440.34 331.06 435.50 331.22 430.00 330.00 Z"/>
</g>
<g fill="None" fill-opacity="0.0" stroke="#727298" stroke-opacity="1.00" stroke-width="0.3"><path d="
M 316.00 318.00 
C 318.15 318.60 320.86 317.34 323.00 318.00
C 319.32 316.10 315.80 316.97 312.00 314.00
C 313.32 315.31 314.10 317.11 316.00 318.00 Z"/>
</g>
<g fill="None" fill-opacity="0.0" stroke="#26263A" stroke-opacity="1.00" stroke-width="0.3"><path d="
M 165.00 318.00 
C 164.12 322.15 165.66 326.81 165.00 331.00
C 163.43 330.61 160.78 331.94 160.00 330.00
C 160.00 326.00 160.00 322.00 160.00 318.00
C 156.99 319.41 150.68 316.12 148.00 318.00
C 147.58 321.94 148.56 326.08 148.00 330.00
C 150.48 326.63 146.73 320.05 153.00 320.00 C 159.27 319.95 158.07 323.85 158.03 328.97 C 157.98 334.09 167.27 332.59 166.00 328.00 C 164.73 323.41 167.61 319.28 166.00 316.00
C 166.00 316.71 165.32 317.41 165.00 318.00 Z"/>
</g>
<g fill="None" fill-opacity="0.0" stroke="#616084" stroke-opacity="1.00" stroke-width="0.3"><path d="
M 143.00 330.00 
C 143.80 331.13 145.56 331.44 147.00 331.00
C 147.29 330.78 147.78 330.30 148.00 330.00
C 148.56 326.08 147.58 321.94 148.00 318.00
C 145.72 321.01 147.63 326.17 147.00 330.00
C 145.67 330.00 144.33 330.00 143.00 330.00 Z"/>
</g>
<g fill="None" fill-opacity="0.0" stroke="#5B5A7C" stroke-opacity="1.00" stroke-width="0.3"><path d="
M 160.00 330.00 
C 160.78 331.94 163.43 330.61 165.00 331.00
C 165.66 326.81 164.12 322.15 165.00 318.00
C 162.72 321.01 164.63 326.17 164.00 330.00
C 162.67 330.00 161.33 330.00 160.00 330.00 Z"/>
</g>
<g fill="None" fill-opacity="0.0" stroke="#4C4B6B" stroke-opacity="1.00" stroke-width="0.3"><path d="
M 225.00 331.00 
C 231.22 329.14 230.31 322.76 231.00 318.00
C 228.70 321.13 230.55 328.95 225.00 331.00 Z"/>
</g>
<g fill="None" fill-opacity="0.0" stroke="#35354E" stroke-opacity="1.00" stroke-width="0.3"><path d="
M 314.00 322.00 
C 316.24 324.00 319.08 328.55 323.75 325.75 C 328.42 322.95 325.68 319.39 323.00 318.00
C 320.86 317.34 318.15 318.60 316.00 318.00
C 317.90 318.89 326.86 318.74 324.25 323.25 C 321.63 327.75 316.65 323.63 314.00 322.00 Z"/>
</g>
<g fill="None" fill-opacity="0.0" stroke="#706F96" stroke-opacity="1.00" stroke-width="0.3"><path d="
M 196.00 326.00 
C 195.57 327.60 197.37 328.46 197.00 330.00
C 193.17 330.47 191.51 325.59 190.00 323.00
C 190.85 326.70 193.07 332.16 198.00 331.00
C 198.93 328.82 196.56 327.40 196.00 326.00 Z"/>
</g>
<g fill="None" fill-opacity="0.0" stroke="#6A698E" stroke-opacity="1.00" stroke-width="0.3"><path d="
M 309.00 326.00 
C 314.93 330.14 323.49 335.28 329.00 327.00
C 322.31 334.90 315.14 327.57 309.00 325.00
C 309.00 325.00 308.80 325.60 309.00 326.00 Z"/>
</g>
<g fill="None" fill-opacity="0.0" stroke="#646381" stroke-opacity="1.00" stroke-width="0.3"><path d="
M 390.00 329.00 
C 390.48 334.74 394.36 328.42 396.00 326.00
C 395.02 327.04 391.75 332.28 390.00 329.00 Z"/>
</g>
<g fill="#2B2B2B" fill-opacity="1.00" stroke="None">
<path d="
M 0.00 461.00 
L 628.00 461.00
L 628.00 287.00
C 613.33 287.00 598.67 287.00 584.00 287.00
C 592.90 283.86 577.56 285.33 574.00 285.00
C 575.78 282.97 579.48 284.47 582.00 284.00
C 582.30 281.08 581.07 278.57 580.00 276.00
C 577.72 282.07 569.89 276.92 565.00 279.00
C 567.85 277.66 565.45 276.56 564.00 275.00
C 561.08 277.59 557.06 274.46 552.30 271.70 C 547.53 268.94 534.16 274.99 537.00 265.00
C 535.71 268.59 528.40 267.18 532.00 263.00
C 526.39 262.16 522.23 263.04 517.00 262.00
C 523.51 256.92 511.17 259.75 507.00 259.00
C 509.16 250.68 499.84 258.14 501.00 251.00
C 496.72 251.05 497.34 257.95 497.00 250.00
C 495.64 252.64 495.22 257.17 495.00 251.00
C 491.39 252.38 489.46 248.97 487.00 250.00
C 488.68 245.00 483.25 243.46 484.00 239.00
C 480.67 239.00 477.33 239.00 474.00 239.00
C 474.86 233.46 465.23 236.75 468.00 230.00
C 465.84 229.99 460.17 232.25 464.00 229.00
C 461.50 228.51 459.34 226.02 460.00 223.00
C 457.14 223.35 454.61 222.73 452.00 222.00
C 453.66 215.93 446.76 214.13 442.00 215.00
C 443.01 211.12 438.79 210.54 436.00 211.00
C 436.27 206.87 432.97 206.34 436.00 203.00
C 433.09 202.25 431.10 202.90 428.00 203.00
C 428.02 197.32 424.48 193.32 418.00 195.00
C 418.00 192.00 418.00 189.00 418.00 186.00
C 415.12 189.49 410.34 187.96 412.00 183.00
C 407.25 183.69 408.50 181.60 410.00 179.00
C 404.84 182.25 404.88 175.09 402.00 176.00
C 404.15 171.97 402.78 170.56 401.00 166.00
C 395.91 169.48 392.40 163.84 394.00 159.00
C 389.78 159.33 390.53 157.36 392.00 155.00
C 386.82 155.48 385.48 149.91 388.00 147.00
C 382.70 148.34 385.02 143.85 384.00 141.00
C 381.91 144.67 381.83 140.25 382.00 138.00
C 376.68 142.02 379.53 134.12 374.90 134.10 C 370.27 134.07 372.30 132.10 368.00 132.00
C 366.56 127.68 371.82 130.19 373.00 128.00
C 372.72 128.18 363.67 128.15 367.14 127.07 C 370.62 126.00 368.54 126.93 366.00 125.00
C 373.11 127.29 373.07 118.82 366.00 120.00
C 368.86 118.19 367.36 113.23 365.00 117.00
C 364.62 112.75 360.71 111.41 364.00 108.00
C 360.89 107.91 362.76 102.09 358.00 104.00
C 359.13 101.57 364.98 100.14 358.00 100.00
C 358.97 96.60 359.67 89.58 354.00 92.00
C 355.24 89.72 356.76 87.39 356.00 84.00
C 349.65 83.53 351.01 73.54 350.00 68.00
C 345.12 68.51 348.83 60.89 344.00 60.00
C 346.47 57.04 345.62 55.28 341.00 56.00
C 343.95 52.28 343.86 49.78 342.74 45.26 C 341.63 40.73 342.09 31.62 338.00 31.00
C 338.97 29.48 339.11 19.86 337.67 16.33 C 336.24 12.80 339.58 8.54 334.00 8.00
C 335.13 5.57 340.98 4.14 334.00 4.00
C 333.15 0.59 338.81 3.52 338.00 0.00
L 0.00 0.00
L 0.00 461.00
M 259.00 226.00 
C 244.72 227.30 234.33 217.90 237.00 203.00
C 237.93 197.81 242.88 193.32 247.23 191.23 C 251.57 189.14 251.62 175.74 249.00 172.00
C 247.67 170.66 246.20 170.65 245.00 169.00
C 244.64 168.77 244.00 169.00 244.00 169.00
C 240.04 167.06 238.11 161.82 237.00 158.00
C 232.00 140.82 254.20 129.40 267.23 138.77 C 280.26 148.14 275.96 167.58 262.00 174.00
C 262.36 181.06 260.40 189.91 267.70 193.30 C 274.99 196.69 275.21 207.82 274.00 214.00 C 272.79 220.18 264.88 226.06 259.00 226.00
M 344.00 161.00 
C 340.00 158.08 327.02 159.32 324.00 162.00
C 316.82 170.82 306.33 177.12 296.25 168.75 C 286.18 160.38 288.23 146.80 297.75 139.75 C 307.27 132.70 323.31 139.28 325.00 151.00
C 331.00 151.00 337.00 151.00 343.00 151.00
C 347.53 132.21 375.87 133.01 378.00 153.00 C 380.13 173.00 350.49 181.08 344.00 161.00
M 369.00 223.00 
C 363.12 225.69 357.40 224.39 352.00 229.00
C 342.56 237.07 334.41 247.00 325.00 255.00
C 330.66 270.27 311.49 283.72 298.31 275.69 C 285.13 267.66 288.53 246.37 303.00 243.00
C 303.00 236.33 303.00 229.67 303.00 223.00
C 282.24 219.08 288.66 187.49 309.00 189.00 C 329.34 190.51 331.18 219.40 312.00 224.00
C 312.00 230.33 312.00 236.67 312.00 243.00
C 315.56 243.70 317.73 246.68 321.00 248.00
C 329.51 238.67 338.71 229.45 348.00 221.00
C 335.49 207.27 345.63 187.41 364.00 189.00 C 382.37 190.59 386.00 216.81 369.00 223.00
M 259.00 278.00 
C 252.45 280.89 242.36 277.97 239.00 270.00
C 232.48 254.54 246.69 236.06 263.25 244.75 C 279.80 253.45 272.50 272.04 259.00 278.00
M 367.00 243.00 
C 387.97 248.68 376.17 285.63 354.93 277.07 C 333.69 268.51 343.72 236.69 367.00 243.00
M 165.00 314.00 
C 165.35 314.70 165.67 315.32 166.00 316.00
C 167.61 319.28 164.73 323.41 166.00 328.00 C 167.27 332.59 157.98 334.09 158.03 328.97 C 158.07 323.85 159.27 319.95 153.00 320.00 C 146.73 320.05 150.48 326.63 148.00 330.00
C 147.78 330.30 147.29 330.78 147.00 331.00
C 140.20 336.29 138.58 314.12 140.97 310.97 C 143.37 307.83 138.02 296.87 146.00 299.00 C 153.99 301.13 144.98 307.68 149.78 311.22 C 154.58 314.76 160.45 309.81 158.00 304.00 C 155.55 298.19 165.89 297.08 165.97 302.03 C 166.05 306.98 166.09 312.23 165.74 314.19
M 183.00 330.00 
C 182.78 330.30 182.29 330.78 182.00 331.00
C 175.48 336.07 175.69 322.21 175.22 318.78 C 174.75 315.34 174.92 305.63 177.00 302.00
C 177.61 300.93 177.97 300.59 179.00 300.00
C 183.04 297.68 189.19 299.66 194.00 299.00
C 196.89 303.00 202.79 311.13 196.70 315.70 C 190.61 320.27 204.57 328.69 196.92 331.92 C 189.26 335.14 190.47 318.71 184.00 320.00
C 183.39 323.17 185.25 327.65 183.00 330.00
M 256.00 311.00 
C 256.29 307.64 257.23 296.26 263.00 299.00 C 268.78 301.75 266.06 309.26 266.93 314.07 C 267.80 318.89 262.37 326.21 265.00 332.00
C 255.58 335.50 255.08 322.63 250.00 318.00
C 244.67 321.69 254.74 329.69 246.92 331.92 C 239.09 334.14 243.12 325.82 241.00 321.00 C 238.88 316.18 241.63 312.53 241.00 307.00 C 240.37 301.46 243.66 296.31 248.74 300.26 C 253.82 304.20 252.09 306.55 256.00 311.00
M 331.00 305.00 
C 331.55 307.17 330.96 309.49 330.00 311.00
C 328.97 312.62 326.80 311.14 326.00 313.00
C 344.37 322.50 316.79 343.09 309.00 326.00
C 308.80 325.60 309.00 325.00 309.00 325.00
C 308.64 323.42 309.27 321.60 309.00 320.00
C 310.78 320.25 314.36 318.97 314.00 322.00
C 316.65 323.63 321.63 327.75 324.25 323.25 C 326.86 318.74 317.90 318.89 316.00 318.00
C 314.10 317.11 313.32 315.31 312.00 314.00
C 311.03 313.24 310.62 313.08 310.00 312.00
C 302.59 299.08 328.00 293.18 331.00 305.00
M 376.00 315.00 
C 376.19 315.09 376.00 316.00 376.00 316.00
C 376.94 317.44 378.46 331.39 372.92 331.92 C 367.37 332.45 367.41 321.36 367.07 316.93 C 366.73 312.49 370.35 302.86 360.00 306.00
C 357.69 294.26 375.13 300.06 381.67 299.33 C 388.21 298.60 385.03 308.44 380.00 306.00 C 374.96 303.56 376.45 313.88 376.00 315.00
M 446.00 311.00 
C 445.74 311.25 445.00 311.00 445.00 311.00
C 443.05 311.25 442.32 310.83 441.00 310.00
C 438.77 308.61 433.64 302.36 430.75 307.75 C 427.87 313.15 438.06 311.57 440.00 313.00
C 440.32 313.24 441.00 313.00 441.00 313.00
C 451.72 316.87 447.53 330.32 438.00 332.00 C 428.47 333.68 415.03 324.02 427.00 318.00
C 421.00 312.46 421.97 301.90 430.08 299.08 C 438.20 296.27 449.65 302.72 446.00 311.00
M 126.00 301.00 
C 128.35 301.87 130.86 303.48 132.00 306.00
C 134.83 312.27 128.10 314.95 126.25 310.75 C 124.40 306.55 117.83 302.70 116.08 308.08 C 114.34 313.47 115.15 318.35 117.26 323.74 C 119.37 329.14 126.78 320.19 128.00 320.00
C 129.30 319.80 130.69 320.15 132.00 320.00
C 132.98 328.82 126.07 331.88 118.00 331.00 C 109.93 330.12 110.69 320.99 108.00 316.00
C 107.66 314.42 108.61 307.89 110.00 306.00
C 110.22 305.70 110.68 305.20 111.00 305.00
C 115.15 299.68 119.93 298.76 126.00 301.00
M 225.00 301.00 
C 230.08 303.38 231.76 312.33 232.00 317.00
C 234.74 329.35 224.01 333.74 213.75 332.20 C 203.50 330.65 202.73 311.10 208.00 306.00
C 208.26 305.75 209.00 306.00 209.00 306.00
C 210.28 304.16 211.95 301.96 214.00 301.00
C 217.15 299.52 221.90 299.55 225.00 301.00
M 293.00 330.00 
C 276.47 336.10 267.61 311.47 279.00 303.00
C 297.47 289.26 308.69 324.21 293.00 330.00
M 396.00 326.00 
C 394.36 328.42 390.48 334.74 390.00 329.00
C 389.60 324.24 395.27 319.89 392.00 315.00
C 396.35 311.04 402.56 294.53 407.30 305.70 C 412.05 316.86 411.70 320.56 416.00 331.00
C 410.50 332.47 410.36 326.36 409.00 323.00
C 404.97 324.06 396.95 320.36 396.00 326.00
M 461.00 301.00 
C 461.64 305.17 459.71 310.66 462.00 314.00
C 466.10 309.45 468.60 300.72 476.00 301.00
C 474.83 305.82 470.28 309.59 467.00 313.00
C 469.01 319.75 476.12 324.19 478.00 331.00
C 470.87 331.33 468.38 322.53 465.00 318.00
C 457.66 318.93 463.89 324.40 461.00 329.00 C 458.11 333.60 454.99 327.51 456.00 323.00 C 457.01 318.49 453.40 316.01 455.97 311.97 C 458.55 307.94 452.11 298.77 461.00 301.00
M 504.00 310.00 
C 502.83 309.46 494.25 301.56 493.25 308.25 C 492.25 314.94 501.41 309.76 504.74 313.26 C 508.07 316.75 511.45 319.76 509.00 325.00
C 506.22 330.94 498.74 332.28 493.00 331.00 C 487.26 329.72 483.50 317.92 492.00 320.00
C 488.89 327.35 504.85 328.64 503.97 321.97 C 503.10 315.30 493.00 320.07 489.75 314.25 C 486.50 308.42 488.19 302.47 495.03 301.03 C 501.86 299.59 509.75 303.10 508.00 311.00
C 506.72 310.72 504.50 311.76 504.00 310.00 Z"/>
</g>
<g fill="#3E3E3E" fill-opacity="1.00" stroke="None">
<path d="
M 628.00 287.00 
L 628.00 0.00
L 338.00 0.00
C 338.81 3.52 333.15 0.59 334.00 4.00
C 340.98 4.14 335.13 5.57 334.00 8.00
C 339.58 8.54 336.24 12.80 337.67 16.33 C 339.11 19.86 338.97 29.48 338.00 31.00
C 342.09 31.62 341.63 40.73 342.74 45.26 C 343.86 49.78 343.95 52.28 341.00 56.00
C 345.62 55.28 346.47 57.04 344.00 60.00
C 348.83 60.89 345.12 68.51 350.00 68.00
C 351.01 73.54 349.65 83.53 356.00 84.00
C 356.76 87.39 355.24 89.72 354.00 92.00
C 359.67 89.58 358.97 96.60 358.00 100.00
C 364.98 100.14 359.13 101.57 358.00 104.00
C 362.76 102.09 360.89 107.91 364.00 108.00
C 360.71 111.41 364.62 112.75 365.00 117.00
C 367.36 113.23 368.86 118.19 366.00 120.00
C 373.07 118.82 373.11 127.29 366.00 125.00
C 368.54 126.93 370.62 126.00 367.14 127.07 C 363.67 128.15 372.72 128.18 373.00 128.00
C 371.82 130.19 366.56 127.68 368.00 132.00
C 372.30 132.10 370.27 134.07 374.90 134.10 C 379.53 134.12 376.68 142.02 382.00 138.00
C 381.83 140.25 381.91 144.67 384.00 141.00
C 385.02 143.85 382.70 148.34 388.00 147.00
C 385.48 149.91 386.82 155.48 392.00 155.00
C 390.53 157.36 389.78 159.33 394.00 159.00
C 392.40 163.84 395.91 169.48 401.00 166.00
C 402.78 170.56 404.15 171.97 402.00 176.00
C 404.88 175.09 404.84 182.25 410.00 179.00
C 408.50 181.60 407.25 183.69 412.00 183.00
C 410.34 187.96 415.12 189.49 418.00 186.00
C 418.00 189.00 418.00 192.00 418.00 195.00
C 424.48 193.32 428.02 197.32 428.00 203.00
C 431.10 202.90 433.09 202.25 436.00 203.00
C 432.97 206.34 436.27 206.87 436.00 211.00
C 438.79 210.54 443.01 211.12 442.00 215.00
C 446.76 214.13 453.66 215.93 452.00 222.00
C 454.61 222.73 457.14 223.35 460.00 223.00
C 459.34 226.02 461.50 228.51 464.00 229.00
C 460.17 232.25 465.84 229.99 468.00 230.00
C 465.23 236.75 474.86 233.46 474.00 239.00
C 477.33 239.00 480.67 239.00 484.00 239.00
C 483.25 243.46 488.68 245.00 487.00 250.00
C 489.46 248.97 491.39 252.38 495.00 251.00
C 495.22 257.17 495.64 252.64 497.00 250.00
C 497.34 257.95 496.72 251.05 501.00 251.00
C 499.84 258.14 509.16 250.68 507.00 259.00
C 511.17 259.75 523.51 256.92 517.00 262.00
C 522.23 263.04 526.39 262.16 532.00 263.00
C 528.40 267.18 535.71 268.59 537.00 265.00
C 534.16 274.99 547.53 268.94 552.30 271.70 C 557.06 274.46 561.08 277.59 564.00 275.00
C 565.45 276.56 567.85 277.66 565.00 279.00
C 569.89 276.92 577.72 282.07 580.00 276.00
C 581.07 278.57 582.30 281.08 582.00 284.00
C 579.48 284.47 575.78 282.97 574.00 285.00
C 577.56 285.33 592.90 283.86 584.00 287.00
C 598.67 287.00 613.33 287.00 628.00 287.00 Z"/>
</g>
<g fill="#3D3C50" fill-opacity="1.00" stroke="None">
<path d="
M 237.00 158.00 
C 236.06 152.09 237.63 148.10 241.00 144.00
C 248.29 135.12 261.95 134.76 268.92 144.08 C 275.89 153.40 271.57 168.75 260.00 172.00
C 260.02 179.86 257.92 190.14 265.08 193.92 C 272.24 197.70 273.07 205.53 272.02 212.02 C 270.98 218.52 265.01 224.28 259.00 226.00
C 264.88 226.06 272.79 220.18 274.00 214.00 C 275.21 207.82 274.99 196.69 267.70 193.30 C 260.40 189.91 262.36 181.06 262.00 174.00
C 275.96 167.58 280.26 148.14 267.23 138.77 C 254.20 129.40 232.00 140.82 237.00 158.00 Z"/>
</g>
<g fill="#A19FE5" fill-opacity="1.00" stroke="None">
<path d="
M 241.00 144.00 
C 235.97 151.56 237.34 162.75 244.00 169.00
C 244.00 169.00 244.64 168.77 245.00 169.00
C 249.23 171.67 253.22 171.64 252.00 178.00 C 250.78 184.36 254.24 188.44 249.00 192.00
C 244.99 194.72 238.36 197.75 237.00 203.00
C 234.33 217.90 244.72 227.30 259.00 226.00
C 265.01 224.28 270.98 218.52 272.02 212.02 C 273.07 205.53 272.24 197.70 265.08 193.92 C 257.92 190.14 260.02 179.86 260.00 172.00
C 271.57 168.75 275.89 153.40 268.92 144.08 C 261.95 134.76 248.29 135.12 241.00 144.00
M 258.00 146.00 
C 268.85 148.91 263.40 167.52 252.33 163.67 C 241.26 159.82 246.68 142.96 258.00 146.00
M 258.00 199.00 
C 268.67 201.87 263.34 220.73 252.00 217.00 C 240.66 213.27 246.66 195.96 258.00 199.00 Z"/>
</g>
<g fill="#A2A1E4" fill-opacity="1.00" stroke="None">
<path d="
M 324.00 162.00 
C 327.12 158.17 339.76 156.68 344.00 161.00
C 350.49 181.08 380.13 173.00 378.00 153.00 C 375.87 133.01 347.53 132.21 343.00 151.00
C 337.00 151.00 331.00 151.00 325.00 151.00
C 323.31 139.28 307.27 132.70 297.75 139.75 C 288.23 146.80 286.18 160.38 296.25 168.75 C 306.33 177.12 316.82 170.82 324.00 162.00
M 312.00 146.00 
C 321.42 149.14 315.46 167.52 304.93 163.07 C 294.39 158.62 299.49 141.83 312.00 146.00
M 364.00 146.00 
C 374.62 149.03 367.52 168.57 356.98 163.02 C 346.43 157.48 352.64 142.76 364.00 146.00 Z"/>
</g>
<g fill="#7777A0" fill-opacity="1.00" stroke="None">
<path d="
M 237.00 158.00 
C 238.11 161.82 240.04 167.06 244.00 169.00
C 237.34 162.75 235.97 151.56 241.00 144.00
C 237.63 148.10 236.06 152.09 237.00 158.00 Z"/>
</g>
<g fill="#34343C" fill-opacity="1.00" stroke="None">
<path d="
M 258.00 146.00 
C 246.68 142.96 241.26 159.82 252.33 163.67 C 263.40 167.52 268.85 148.91 258.00 146.00 Z"/>
</g>
<g fill="#35353E" fill-opacity="1.00" stroke="None">
<path d="
M 312.00 146.00 
C 299.49 141.83 294.39 158.62 304.93 163.07 C 315.46 167.52 321.42 149.14 312.00 146.00 Z"/>
</g>
<g fill="#393942" fill-opacity="1.00" stroke="None">
<path d="
M 364.00 146.00 
C 352.64 142.76 346.43 157.48 356.98 163.02 C 367.52 168.57 374.62 149.03 364.00 146.00 Z"/>
</g>
<g fill="#636286" fill-opacity="1.00" stroke="None">
<path d="
M 324.00 162.00 
C 327.02 159.32 340.00 158.08 344.00 161.00
C 339.76 156.68 327.12 158.17 324.00 162.00 Z"/>
</g>
<g fill="#7978A4" fill-opacity="1.00" stroke="None">
<path d="
M 249.00 172.00 
C 251.97 174.98 252.77 188.45 249.00 192.00
C 254.24 188.44 250.78 184.36 252.00 178.00 C 253.22 171.64 249.23 171.67 245.00 169.00
C 246.20 170.65 247.67 170.66 249.00 172.00 Z"/>
</g>
<g fill="#3B3B56" fill-opacity="1.00" stroke="None">
<path d="
M 237.00 203.00 
C 238.36 197.75 244.99 194.72 249.00 192.00
C 252.77 188.45 251.97 174.98 249.00 172.00
C 251.62 175.74 251.57 189.14 247.23 191.23 C 242.88 193.32 237.93 197.81 237.00 203.00 Z"/>
</g>
<g fill="#A19FE3" fill-opacity="1.00" stroke="None">
<path d="
M 352.00 229.00 
C 357.83 223.17 361.51 225.27 369.00 223.00
C 386.00 216.81 382.37 190.59 364.00 189.00 C 345.63 187.41 335.49 207.27 348.00 221.00
C 338.71 229.45 329.51 238.67 321.00 248.00
C 317.73 246.68 315.56 243.70 312.00 243.00
C 312.00 236.67 312.00 230.33 312.00 224.00
C 331.18 219.40 329.34 190.51 309.00 189.00 C 288.66 187.49 282.24 219.08 303.00 223.00
C 303.00 229.67 303.00 236.33 303.00 243.00
C 288.53 246.37 285.13 267.66 298.31 275.69 C 311.49 283.72 330.66 270.27 325.00 255.00
C 334.41 247.00 342.56 237.07 352.00 229.00
M 312.00 198.00 
C 321.68 201.41 315.39 219.99 304.78 215.22 C 294.16 210.45 300.68 194.02 312.00 198.00
M 363.00 198.00 
C 374.33 200.87 367.87 219.54 357.00 215.00 C 346.13 210.46 352.65 195.38 363.00 198.00
M 310.00 251.00 
C 321.04 253.17 317.61 271.25 306.00 269.00 C 294.39 266.75 298.37 248.72 310.00 251.00 Z"/>
</g>
<g fill="#35343D" fill-opacity="1.00" stroke="None">
<path d="
M 312.00 198.00 
C 300.68 194.02 294.16 210.45 304.78 215.22 C 315.39 219.99 321.68 201.41 312.00 198.00 Z"/>
</g>
<g fill="#37373E" fill-opacity="1.00" stroke="None">
<path d="
M 363.00 198.00 
C 352.65 195.38 346.13 210.46 357.00 215.00 C 367.87 219.54 374.33 200.87 363.00 198.00 Z"/>
</g>
<g fill="#35353E" fill-opacity="1.00" stroke="None">
<path d="
M 258.00 199.00 
C 246.66 195.96 240.66 213.27 252.00 217.00 C 263.34 220.73 268.67 201.87 258.00 199.00 Z"/>
</g>
<g fill="#5E5D81" fill-opacity="1.00" stroke="None">
<path d="
M 352.00 229.00 
C 357.40 224.39 363.12 225.69 369.00 223.00
C 361.51 225.27 357.83 223.17 352.00 229.00 Z"/>
</g>
<g fill="#9D9DE2" fill-opacity="1.00" stroke="None">
<path d="
M 239.00 270.00 
C 242.55 275.79 252.64 279.01 259.00 278.00
C 272.50 272.04 279.80 253.45 263.25 244.75 C 246.69 236.06 232.48 254.54 239.00 270.00
M 257.00 251.00 
C 268.16 253.02 264.37 271.80 253.00 269.00 C 241.62 266.19 245.69 248.96 257.00 251.00 Z"/>
</g>
<g fill="#A19FE4" fill-opacity="1.00" stroke="None">
<path d="
M 367.00 243.00 
C 343.72 236.69 333.69 268.51 354.93 277.07 C 376.17 285.63 387.97 248.68 367.00 243.00
M 363.00 251.00 
C 374.42 254.07 368.45 273.12 357.33 268.67 C 346.21 264.22 352.17 248.09 363.00 251.00 Z"/>
</g>
<g fill="#303038" fill-opacity="1.00" stroke="None">
<path d="
M 257.00 251.00 
C 245.69 248.96 241.62 266.19 253.00 269.00 C 264.37 271.80 268.16 253.02 257.00 251.00 Z"/>
</g>
<g fill="#33333C" fill-opacity="1.00" stroke="None">
<path d="
M 310.00 251.00 
C 298.37 248.72 294.39 266.75 306.00 269.00 C 317.61 271.25 321.04 253.17 310.00 251.00 Z"/>
</g>
<g fill="#36363F" fill-opacity="1.00" stroke="None">
<path d="
M 363.00 251.00 
C 352.17 248.09 346.21 264.22 357.33 268.67 C 368.45 273.12 374.42 254.07 363.00 251.00 Z"/>
</g>
<g fill="#35354C" fill-opacity="1.00" stroke="None">
<path d="
M 259.00 278.00 
C 252.64 279.01 242.55 275.79 239.00 270.00
C 242.36 277.97 252.45 280.89 259.00 278.00 Z"/>
</g>
<g fill="#2C2B40" fill-opacity="1.00" stroke="None">
<path d="
M 147.00 331.00 
C 145.56 331.44 143.80 331.13 143.00 330.00
C 141.20 327.46 144.47 321.83 143.00 319.00 C 141.53 316.17 141.55 314.88 142.97 311.97 C 144.40 309.07 141.27 303.63 143.00 301.00
C 146.97 294.98 150.11 310.53 148.00 313.00
C 152.00 313.00 156.00 313.00 160.00 313.00
C 161.88 310.32 158.59 304.01 160.00 301.00
C 167.66 299.79 161.70 310.29 165.00 314.00
C 166.09 312.23 166.05 306.98 165.97 302.03 C 165.89 297.08 155.55 298.19 158.00 304.00 C 160.45 309.81 154.58 314.76 149.78 311.22 C 144.98 307.68 153.99 301.13 146.00 299.00 C 138.02 296.87 143.37 307.83 140.97 310.97 C 138.58 314.12 140.20 336.29 147.00 331.00 Z"/>
</g>
<g fill="#2B2B3D" fill-opacity="1.00" stroke="None">
<path d="
M 179.00 300.00 
C 183.15 298.66 192.83 298.99 195.00 303.00
C 195.25 303.47 195.69 304.66 196.00 305.00
C 201.52 311.06 193.74 313.83 194.00 320.00
C 194.69 321.93 195.23 324.07 196.00 326.00
C 196.56 327.40 198.93 328.82 198.00 331.00
C 193.07 332.16 190.85 326.70 190.00 323.00
C 189.28 321.33 188.00 319.91 188.00 318.00
C 186.33 318.00 184.67 318.00 183.00 318.00
C 182.58 321.94 183.56 326.08 183.00 330.00
C 185.25 327.65 183.39 323.17 184.00 320.00
C 190.47 318.71 189.26 335.14 196.92 331.92 C 204.57 328.69 190.61 320.27 196.70 315.70 C 202.79 311.13 196.89 303.00 194.00 299.00
C 189.19 299.66 183.04 297.68 179.00 300.00 Z"/>
</g>
<g fill="#333245" fill-opacity="1.00" stroke="None">
<path d="
M 256.00 311.00 
C 252.09 306.55 253.82 304.20 248.74 300.26 C 243.66 296.31 240.37 301.46 241.00 307.00 C 241.63 312.53 238.88 316.18 241.00 321.00 C 243.12 325.82 239.09 334.14 246.92 331.92 C 254.74 329.69 244.67 321.69 250.00 318.00
C 255.08 322.63 255.58 335.50 265.00 332.00
C 262.37 326.21 267.80 318.89 266.93 314.07 C 266.06 309.26 268.78 301.75 263.00 299.00 C 257.23 296.26 256.29 307.64 256.00 311.00
M 250.00 304.00 
C 252.71 309.30 254.89 315.59 259.00 320.00
C 259.00 313.67 259.00 307.33 259.00 301.00
C 266.88 298.99 263.12 309.94 264.78 314.22 C 266.44 318.50 262.13 325.27 264.00 331.00
C 254.56 329.69 253.80 316.38 248.00 310.00
C 245.71 316.09 247.63 324.16 247.00 331.00
C 246.00 331.00 245.00 331.00 244.00 331.00
C 239.80 330.15 242.90 321.69 241.22 317.78 C 239.54 313.87 243.14 290.58 250.00 304.00 Z"/>
</g>
<g fill="#2E2E40" fill-opacity="1.00" stroke="None">
<path d="
M 310.00 312.00 
C 308.60 307.75 310.71 304.19 314.00 302.00
C 317.56 299.63 320.95 299.50 325.00 301.00
C 326.29 301.48 330.51 303.49 331.00 305.00
C 328.00 293.18 302.59 299.08 310.00 312.00 Z"/>
</g>
<g fill="#403F56" fill-opacity="1.00" stroke="None">
<path d="
M 376.00 316.00 
C 372.33 319.59 374.66 325.40 374.00 330.00
C 366.28 331.53 372.19 321.65 370.00 318.00 C 367.81 314.35 371.06 310.05 370.00 305.00
C 367.00 305.00 364.00 305.00 361.00 305.00
C 362.02 296.67 376.39 302.95 383.00 301.00
C 384.61 306.92 377.40 304.55 374.00 305.00
C 374.67 308.20 372.29 313.31 376.00 315.00
C 376.45 313.88 374.96 303.56 380.00 306.00 C 385.03 308.44 388.21 298.60 381.67 299.33 C 375.13 300.06 357.69 294.26 360.00 306.00
C 370.35 302.86 366.73 312.49 367.07 316.93 C 367.41 321.36 367.37 332.45 372.92 331.92 C 378.46 331.39 376.94 317.44 376.00 316.00 Z"/>
</g>
<g fill="#363544" fill-opacity="1.00" stroke="None">
<path d="
M 441.00 313.00 
C 444.00 317.29 448.60 321.35 444.74 326.74 C 440.89 332.13 435.13 331.89 430.00 330.00
C 424.86 328.10 419.93 319.17 429.00 320.00
C 427.31 324.99 436.87 330.14 440.25 324.25 C 443.62 318.35 433.14 317.17 429.00 317.00
C 407.44 307.26 450.70 287.14 446.00 311.00
C 449.65 302.72 438.20 296.27 430.08 299.08 C 421.97 301.90 421.00 312.46 427.00 318.00
C 415.03 324.02 428.47 333.68 438.00 332.00 C 447.53 330.32 451.72 316.87 441.00 313.00 Z"/>
</g>
<g fill="#4E4D73" fill-opacity="1.00" stroke="None">
<path d="
M 111.00 305.00 
C 115.98 301.93 119.36 299.53 126.00 301.00
C 119.93 298.76 115.15 299.68 111.00 305.00 Z"/>
</g>
<g fill="#58577E" fill-opacity="1.00" stroke="None">
<path d="
M 143.00 301.00 
C 144.33 301.00 145.67 301.00 147.00 301.00
C 143.72 311.04 150.83 317.90 160.00 313.00
C 156.00 313.00 152.00 313.00 148.00 313.00
C 150.11 310.53 146.97 294.98 143.00 301.00 Z"/>
</g>
<g fill="#4C4B6D" fill-opacity="1.00" stroke="None">
<path d="
M 177.00 302.00 
C 175.54 306.50 176.12 314.08 176.26 317.75 C 176.40 321.41 175.28 332.65 182.00 331.00
C 182.29 330.78 182.78 330.30 183.00 330.00
C 183.56 326.08 182.58 321.94 183.00 318.00
C 180.05 319.91 183.14 327.05 182.00 330.00
C 175.50 331.15 178.58 320.61 177.22 316.78 C 175.86 312.95 179.75 306.26 178.00 301.00
C 183.63 301.77 190.41 299.14 195.00 303.00
C 192.83 298.99 183.15 298.66 179.00 300.00
C 177.97 300.59 177.61 300.93 177.00 302.00 Z"/>
</g>
<g fill="#4B4A6E" fill-opacity="1.00" stroke="None">
<path d="
M 214.00 301.00 
C 216.25 300.33 222.75 300.33 225.00 301.00
C 221.90 299.55 217.15 299.52 214.00 301.00 Z"/>
</g>
<g fill="#4F4E6F" fill-opacity="1.00" stroke="None">
<path d="
M 244.00 331.00 
C 242.06 330.04 242.45 319.19 241.25 316.75 C 240.04 314.32 245.77 304.81 243.00 301.00
C 246.53 299.95 247.80 302.17 250.00 304.00
C 243.14 290.58 239.54 313.87 241.22 317.78 C 242.90 321.69 239.80 330.15 244.00 331.00 Z"/>
</g>
<g fill="#504E73" fill-opacity="1.00" stroke="None">
<path d="
M 314.00 302.00 
C 316.83 300.69 321.81 300.29 325.00 301.00
C 320.95 299.50 317.56 299.63 314.00 302.00 Z"/>
</g>
<g fill="#585777" fill-opacity="1.00" stroke="None">
<path d="
M 429.00 317.00 
C 412.45 308.07 445.83 288.29 445.00 311.00
C 445.00 311.00 445.74 311.25 446.00 311.00
C 450.70 287.14 407.44 307.26 429.00 317.00 Z"/>
</g>
<g fill="#9796D3" fill-opacity="1.00" stroke="None">
<path d="
M 111.00 305.00 
C 110.68 305.20 110.22 305.70 110.00 306.00
C 109.62 308.67 107.97 314.01 108.00 316.00
C 110.69 320.99 109.93 330.12 118.00 331.00 C 126.07 331.88 132.98 328.82 132.00 320.00
C 130.69 320.15 129.30 319.80 128.00 320.00
C 131.42 326.48 115.05 328.86 114.25 323.75 C 113.46 318.63 111.27 308.97 117.25 305.25 C 123.23 301.53 128.43 311.50 132.00 312.00
C 132.00 310.00 132.00 308.00 132.00 306.00
C 130.86 303.48 128.35 301.87 126.00 301.00
C 119.36 299.53 115.98 301.93 111.00 305.00 Z"/>
</g>
<g fill="#9E9DDD" fill-opacity="1.00" stroke="None">
<path d="
M 143.00 330.00 
C 144.33 330.00 145.67 330.00 147.00 330.00
C 147.63 326.17 145.72 321.01 148.00 318.00
C 150.68 316.12 156.99 319.41 160.00 318.00
C 160.00 322.00 160.00 326.00 160.00 330.00
C 161.33 330.00 162.67 330.00 164.00 330.00
C 164.63 326.17 162.72 321.01 165.00 318.00
C 165.32 317.41 166.00 316.71 166.00 316.00
C 165.67 315.32 165.35 314.70 165.00 314.00
C 161.70 310.29 167.66 299.79 160.00 301.00
C 158.59 304.01 161.88 310.32 160.00 313.00
C 150.83 317.90 143.72 311.04 147.00 301.00
C 145.67 301.00 144.33 301.00 143.00 301.00
C 141.27 303.63 144.40 309.07 142.97 311.97 C 141.55 314.88 141.53 316.17 143.00 319.00 C 144.47 321.83 141.20 327.46 143.00 330.00 Z"/>
</g>
<g fill="#9C9BDB" fill-opacity="1.00" stroke="None">
<path d="
M 183.00 318.00 
C 184.67 318.00 186.33 318.00 188.00 318.00
C 188.00 319.91 189.28 321.33 190.00 323.00
C 191.51 325.59 193.17 330.47 197.00 330.00
C 197.37 328.46 195.57 327.60 196.00 326.00
C 195.23 324.07 194.69 321.93 194.00 320.00
C 192.29 315.16 199.40 311.79 196.00 305.00
C 195.69 304.66 195.25 303.47 195.00 303.00
C 190.41 299.14 183.63 301.77 178.00 301.00
C 179.75 306.26 175.86 312.95 177.22 316.78 C 178.58 320.61 175.50 331.15 182.00 330.00
C 183.14 327.05 180.05 319.91 183.00 318.00
M 182.00 305.00 
C 186.38 303.36 196.57 306.87 191.24 312.25 C 185.92 317.62 179.28 311.67 182.00 305.00 Z"/>
</g>
<g fill="#9998D5" fill-opacity="1.00" stroke="None">
<path d="
M 209.00 306.00 
C 209.62 312.79 204.67 325.41 213.00 330.00
C 215.82 331.30 221.85 331.94 225.00 331.00
C 230.55 328.95 228.70 321.13 231.00 318.00
C 231.22 317.70 232.01 317.15 232.00 317.00
C 231.76 312.33 230.08 303.38 225.00 301.00
C 222.75 300.33 216.25 300.33 214.00 301.00
C 211.95 301.96 210.28 304.16 209.00 306.00
M 224.00 306.00 
C 227.48 308.49 227.94 324.20 223.00 326.00
C 206.53 332.00 210.28 296.20 224.00 306.00 Z"/>
</g>
<g fill="#9695D1" fill-opacity="1.00" stroke="None">
<path d="
M 244.00 331.00 
C 245.00 331.00 246.00 331.00 247.00 331.00
C 247.63 324.16 245.71 316.09 248.00 310.00
C 253.80 316.38 254.56 329.69 264.00 331.00
C 262.13 325.27 266.44 318.50 264.78 314.22 C 263.12 309.94 266.88 298.99 259.00 301.00
C 259.00 307.33 259.00 313.67 259.00 320.00
C 254.89 315.59 252.71 309.30 250.00 304.00
C 247.80 302.17 246.53 299.95 243.00 301.00
C 245.77 304.81 240.04 314.32 241.25 316.75 C 242.45 319.19 242.06 330.04 244.00 331.00 Z"/>
</g>
<g fill="#9A9AD6" fill-opacity="1.00" stroke="None">
<path d="
M 279.00 303.00 
C 268.99 313.01 277.36 333.47 293.00 330.00
C 308.69 324.21 297.47 289.26 279.00 303.00
M 292.00 305.00 
C 296.32 307.23 293.05 316.33 294.00 320.00 C 294.95 323.67 288.60 330.81 283.33 325.67 C 278.06 320.53 279.20 298.38 292.00 305.00 Z"/>
</g>
<g fill="#9A9AD5" fill-opacity="1.00" stroke="None">
<path d="
M 314.00 302.00 
C 310.71 304.19 308.60 307.75 310.00 312.00
C 310.62 313.08 311.03 313.24 312.00 314.00
C 315.80 316.97 319.32 316.10 323.00 318.00
C 325.68 319.39 328.42 322.95 323.75 325.75 C 319.08 328.55 316.24 324.00 314.00 322.00
C 314.36 318.97 310.78 320.25 309.00 320.00
C 309.27 321.60 308.64 323.42 309.00 325.00
C 315.14 327.57 322.31 334.90 329.00 327.00
C 331.98 322.52 331.13 318.32 327.25 314.75 C 323.37 311.19 315.36 315.24 315.03 308.97 C 314.69 302.71 325.67 303.84 326.00 309.00
C 326.03 309.50 326.00 310.00 326.00 310.00
C 326.55 310.84 329.13 311.39 330.00 311.00
C 330.96 309.49 331.55 307.17 331.00 305.00
C 330.51 303.49 326.29 301.48 325.00 301.00
C 321.81 300.29 316.83 300.69 314.00 302.00 Z"/>
</g>
<g fill="#A1A0DD" fill-opacity="1.00" stroke="None">
<path d="
M 376.00 316.00 
C 376.00 316.00 376.19 315.09 376.00 315.00
C 372.29 313.31 374.67 308.20 374.00 305.00
C 377.40 304.55 384.61 306.92 383.00 301.00
C 376.39 302.95 362.02 296.67 361.00 305.00
C 364.00 305.00 367.00 305.00 370.00 305.00
C 371.06 310.05 367.81 314.35 370.00 318.00 C 372.19 321.65 366.28 331.53 374.00 330.00
C 374.66 325.40 372.33 319.59 376.00 316.00 Z"/>
</g>
<g fill="#9A99D3" fill-opacity="1.00" stroke="None">
<path d="
M 390.00 329.00 
C 391.75 332.28 395.02 327.04 396.00 326.00
C 396.95 320.36 404.97 324.06 409.00 323.00
C 410.36 326.36 410.50 332.47 416.00 331.00
C 411.70 320.56 412.05 316.86 407.30 305.70 C 402.56 294.53 396.35 311.04 392.00 315.00
C 395.27 319.89 389.60 324.24 390.00 329.00
M 403.00 308.00 
C 404.03 311.86 406.46 315.10 407.00 319.00
C 404.00 319.00 401.00 319.00 398.00 319.00
C 399.73 315.49 399.80 310.46 403.00 308.00 Z"/>
</g>
<g fill="#9D9CD6" fill-opacity="1.00" stroke="None">
<path d="
M 429.00 317.00 
C 433.14 317.17 443.62 318.35 440.25 324.25 C 436.87 330.14 427.31 324.99 429.00 320.00
C 419.93 319.17 424.86 328.10 430.00 330.00
C 435.50 331.22 440.34 331.06 444.25 326.25 C 448.16 321.44 441.58 316.78 440.00 313.00
C 437.13 311.94 431.44 315.25 429.75 311.25 C 428.07 307.24 429.34 306.34 434.01 305.01 C 438.68 303.68 439.04 308.19 441.00 310.00
C 442.32 310.83 443.05 311.25 445.00 311.00
C 445.83 288.29 412.45 308.07 429.00 317.00 Z"/>
</g>
<g fill="#9998D0" fill-opacity="1.00" stroke="None">
<path d="
M 461.00 301.00 
C 452.11 298.77 458.55 307.94 455.97 311.97 C 453.40 316.01 457.01 318.49 456.00 323.00 C 454.99 327.51 458.11 333.60 461.00 329.00 C 463.89 324.40 457.66 318.93 465.00 318.00
C 468.38 322.53 470.87 331.33 478.00 331.00
C 476.12 324.19 469.01 319.75 467.00 313.00
C 470.28 309.59 474.83 305.82 476.00 301.00
C 468.60 300.72 466.10 309.45 462.00 314.00
C 459.71 310.66 461.64 305.17 461.00 301.00 Z"/>
</g>
<g fill="#9B9AD1" fill-opacity="1.00" stroke="None">
<path d="
M 509.00 325.00 
C 510.67 319.07 505.66 312.75 500.00 313.00 C 494.34 313.26 493.69 314.17 492.08 309.92 C 490.48 305.66 494.49 306.39 498.00 305.00 C 501.52 303.61 502.82 309.11 504.00 310.00
C 504.50 311.76 506.72 310.72 508.00 311.00
C 509.75 303.10 501.86 299.59 495.03 301.03 C 488.19 302.47 486.50 308.42 489.75 314.25 C 493.00 320.07 503.10 315.30 503.97 321.97 C 504.85 328.64 488.89 327.35 492.00 320.00
C 483.50 317.92 487.26 329.72 493.00 331.00 C 498.74 332.28 506.22 330.94 509.00 325.00 Z"/>
</g>
<g fill="#262636" fill-opacity="1.00" stroke="None">
<path d="
M 182.00 331.00 
C 175.28 332.65 176.40 321.41 176.26 317.75 C 176.12 314.08 175.54 306.50 177.00 302.00
C 174.92 305.63 174.75 315.34 175.22 318.78 C 175.69 322.21 175.48 336.07 182.00 331.00 Z"/>
</g>
<g fill="#5F5F83" fill-opacity="1.00" stroke="None">
<path d="
M 293.00 330.00 
C 277.36 333.47 268.99 313.01 279.00 303.00
C 267.61 311.47 276.47 336.10 293.00 330.00 Z"/>
</g>
<g fill="#343351" fill-opacity="1.00" stroke="None">
<path d="
M 128.00 320.00 
C 126.78 320.19 119.37 329.14 117.26 323.74 C 115.15 318.35 114.34 313.47 116.08 308.08 C 117.83 302.70 124.40 306.55 126.25 310.75 C 128.10 314.95 134.83 312.27 132.00 306.00
C 132.00 308.00 132.00 310.00 132.00 312.00
C 128.43 311.50 123.23 301.53 117.25 305.25 C 111.27 308.97 113.46 318.63 114.25 323.75 C 115.05 328.86 131.42 326.48 128.00 320.00 Z"/>
</g>
<g fill="#333347" fill-opacity="1.00" stroke="None">
<path d="
M 182.00 305.00 
C 179.28 311.67 185.92 317.62 191.24 312.25 C 196.57 306.87 186.38 303.36 182.00 305.00 Z"/>
</g>
<g fill="#4A4A6B" fill-opacity="1.00" stroke="None">
<path d="
M 194.00 320.00 
C 193.74 313.83 201.52 311.06 196.00 305.00
C 199.40 311.79 192.29 315.16 194.00 320.00 Z"/>
</g>
<g fill="#2B2B33" fill-opacity="1.00" stroke="None">
<path d="
M 223.00 326.00 
C 226.31 324.29 226.35 308.35 224.00 306.00
C 210.28 296.20 206.53 332.00 223.00 326.00 Z"/>
</g>
<g fill="#383755" fill-opacity="1.00" stroke="None">
<path d="
M 292.00 305.00 
C 279.20 298.38 278.06 320.53 283.33 325.67 C 288.60 330.81 294.95 323.67 294.00 320.00 C 293.05 316.33 296.32 307.23 292.00 305.00
M 291.00 306.00 
C 298.14 309.58 292.19 330.09 284.33 324.67 C 276.47 319.25 282.35 301.66 291.00 306.00 Z"/>
</g>
<g fill="#302F48" fill-opacity="1.00" stroke="None">
<path d="
M 329.00 327.00 
C 323.49 335.28 314.93 330.14 309.00 326.00
C 316.79 343.09 344.37 322.50 326.00 313.00
C 326.80 311.14 328.97 312.62 330.00 311.00
C 329.13 311.39 326.55 310.84 326.00 310.00
C 325.08 313.09 315.55 313.64 316.03 308.97 C 316.50 304.31 324.59 305.17 326.00 309.00
C 325.67 303.84 314.69 302.71 315.03 308.97 C 315.36 315.24 323.37 311.19 327.25 314.75 C 331.13 318.32 331.98 322.52 329.00 327.00 Z"/>
</g>
<g fill="#41405F" fill-opacity="1.00" stroke="None">
<path d="
M 440.00 313.00 
C 438.06 311.57 427.87 313.15 430.75 307.75 C 433.64 302.36 438.77 308.61 441.00 310.00
C 439.04 308.19 438.68 303.68 434.01 305.01 C 429.34 306.34 428.07 307.24 429.75 311.25 C 431.44 315.25 437.13 311.94 440.00 313.00 Z"/>
</g>
<g fill="#3C3C57" fill-opacity="1.00" stroke="None">
<path d="
M 509.00 325.00 
C 511.45 319.76 508.07 316.75 504.74 313.26 C 501.41 309.76 492.25 314.94 493.25 308.25 C 494.25 301.56 502.83 309.46 504.00 310.00
C 502.82 309.11 501.52 303.61 498.00 305.00 C 494.49 306.39 490.48 305.66 492.08 309.92 C 493.69 314.17 494.34 313.26 500.00 313.00 C 505.66 312.75 510.67 319.07 509.00 325.00 Z"/>
</g>
<g fill="#282844" fill-opacity="1.00" stroke="None">
<path d="
M 108.00 316.00 
C 107.97 314.01 109.62 308.67 110.00 306.00
C 108.61 307.89 107.66 314.42 108.00 316.00 Z"/>
</g>
<g fill="#2C2B3C" fill-opacity="1.00" stroke="None">
<path d="
M 232.00 317.00 
C 232.01 317.15 231.22 317.70 231.00 318.00
C 230.31 322.76 231.22 329.14 225.00 331.00
C 221.85 331.94 215.82 331.30 213.00 330.00
C 204.35 326.00 207.36 313.09 208.00 306.00
C 202.73 311.10 203.50 330.65 213.75 332.20 C 224.01 333.74 234.74 329.35 232.00 317.00 Z"/>
</g>
<g fill="#6E6C97" fill-opacity="1.00" stroke="None">
<path d="
M 213.00 330.00 
C 204.67 325.41 209.62 312.79 209.00 306.00
C 209.00 306.00 208.26 305.75 208.00 306.00
C 207.36 313.09 204.35 326.00 213.00 330.00 Z"/>
</g>
<g fill="#59587B" fill-opacity="1.00" stroke="None">
<path d="
M 223.00 326.00 
C 227.94 324.20 227.48 308.49 224.00 306.00
C 226.35 308.35 226.31 324.29 223.00 326.00 Z"/>
</g>
<g fill="#2C2C2F" fill-opacity="1.00" stroke="None">
<path d="
M 291.00 306.00 
C 282.35 301.66 276.47 319.25 284.33 324.67 C 292.19 330.09 298.14 309.58 291.00 306.00 Z"/>
</g>
<g fill="#2E2D33" fill-opacity="1.00" stroke="None">
<path d="
M 326.00 310.00 
C 326.00 310.00 326.03 309.50 326.00 309.00
C 324.59 305.17 316.50 304.31 316.03 308.97 C 315.55 313.64 325.08 313.09 326.00 310.00 Z"/>
</g>
<g fill="#42415D" fill-opacity="1.00" stroke="None">
<path d="
M 403.00 308.00 
C 399.80 310.46 399.73 315.49 398.00 319.00
C 401.00 319.00 404.00 319.00 407.00 319.00
C 406.46 315.10 404.03 311.86 403.00 308.00
M 401.00 317.00 
C 400.81 309.82 407.38 317.31 401.00 317.00 Z"/>
</g>
<g fill="#313134" fill-opacity="1.00" stroke="None">
<path d="
M 401.00 317.00 
C 407.38 317.31 400.81 309.82 401.00 317.00 Z"/>
</g>
<g fill="#6C6B90" fill-opacity="1.00" stroke="None">
<path d="
M 430.00 330.00 
C 435.13 331.89 440.89 332.13 444.74 326.74 C 448.60 321.35 444.00 317.29 441.00 313.00
C 441.00 313.00 440.32 313.24 440.00 313.00
C 441.58 316.78 448.16 321.44 444.25 326.25 C 440.34 331.06 435.50 331.22 430.00 330.00 Z"/>
</g>
<g fill="#727298" fill-opacity="1.00" stroke="None">
<path d="
M 316.00 318.00 
C 318.15 318.60 320.86 317.34 323.00 318.00
C 319.32 316.10 315.80 316.97 312.00 314.00
C 313.32 315.31 314.10 317.11 316.00 318.00 Z"/>
</g>
<g fill="#26263A" fill-opacity="1.00" stroke="None">
<path d="
M 165.00 318.00 
C 164.12 322.15 165.66 326.81 165.00 331.00
C 163.43 330.61 160.78 331.94 160.00 330.00
C 160.00 326.00 160.00 322.00 160.00 318.00
C 156.99 319.41 150.68 316.12 148.00 318.00
C 147.58 321.94 148.56 326.08 148.00 330.00
C 150.48 326.63 146.73 320.05 153.00 320.00 C 159.27 319.95 158.07 323.85 158.03 328.97 C 157.98 334.09 167.27 332.59 166.00 328.00 C 164.73 323.41 167.61 319.28 166.00 316.00
C 166.00 316.71 165.32 317.41 165.00 318.00 Z"/>
</g>
<g fill="#616084" fill-opacity="1.00" stroke="None">
<path d="
M 143.00 330.00 
C 143.80 331.13 145.56 331.44 147.00 331.00
C 147.29 330.78 147.78 330.30 148.00 330.00
C 148.56 326.08 147.58 321.94 148.00 318.00
C 145.72 321.01 147.63 326.17 147.00 330.00
C 145.67 330.00 144.33 330.00 143.00 330.00 Z"/>
</g>
<g fill="#5B5A7C" fill-opacity="1.00" stroke="None">
<path d="
M 160.00 330.00 
C 160.78 331.94 163.43 330.61 165.00 331.00
C 165.66 326.81 164.12 322.15 165.00 318.00
C 162.72 321.01 164.63 326.17 164.00 330.00
C 162.67 330.00 161.33 330.00 160.00 330.00 Z"/>
</g>
<g fill="#4C4B6B" fill-opacity="1.00" stroke="None">
<path d="
M 225.00 331.00 
C 231.22 329.14 230.31 322.76 231.00 318.00
C 228.70 321.13 230.55 328.95 225.00 331.00 Z"/>
</g>
<g fill="#35354E" fill-opacity="1.00" stroke="None">
<path d="
M 314.00 322.00 
C 316.24 324.00 319.08 328.55 323.75 325.75 C 328.42 322.95 325.68 319.39 323.00 318.00
C 320.86 317.34 318.15 318.60 316.00 318.00
C 317.90 318.89 326.86 318.74 324.25 323.25 C 321.63 327.75 316.65 323.63 314.00 322.00 Z"/>
</g>
<g fill="#706F96" fill-opacity="1.00" stroke="None">
<path d="
M 196.00 326.00 
C 195.57 327.60 197.37 328.46 197.00 330.00
C 193.17 330.47 191.51 325.59 190.00 323.00
C 190.85 326.70 193.07 332.16 198.00 331.00
C 198.93 328.82 196.56 327.40 196.00 326.00 Z"/>
</g>
<g fill="#6A698E" fill-opacity="1.00" stroke="None">
<path d="
M 309.00 326.00 
C 314.93 330.14 323.49 335.28 329.00 327.00
C 322.31 334.90 315.14 327.57 309.00 325.00
C 309.00 325.00 308.80 325.60 309.00 326.00 Z"/>
</g>
<g fill="#646381" fill-opacity="1.00" stroke="None">
<path d="
M 390.00 329.00 
C 390.48 334.74 394.36 328.42 396.00 326.00
C 395.02 327.04 391.75 332.28 390.00 329.00 Z"/>
</g>
</svg>